<svg width="57" height="57" viewBox="0 0 57 57" fill="none" xmlns="http://www.w3.org/2000/svg">
<path d="M28.5 0C12.7582 0 0 12.7582 0 28.5C0 44.2418 12.7582 57 28.5 57C44.2418 57 57 44.2418 57 28.5C57 12.7582 44.2418 0 28.5 0ZM46.2902 46.2791C43.9746 48.5947 41.2916 50.4094 38.2969 51.6674C35.202 52.9811 31.9066 53.6379 28.5 53.6379C25.1045 53.6379 21.8092 52.9699 18.7031 51.6674C15.7084 50.3982 13.0143 48.5836 10.7098 46.2791C8.39414 43.9635 6.57949 41.2805 5.32148 38.2857C4.00781 35.1908 3.33984 31.8955 3.33984 28.5C3.33984 25.1045 4.00781 21.8092 5.31035 18.7031C6.57949 15.7084 8.39414 13.0143 10.6986 10.7098C13.0254 8.39414 15.7084 6.57949 18.7031 5.31035C21.8092 4.00781 25.1045 3.33984 28.5 3.33984C31.8955 3.33984 35.1908 4.00781 38.2969 5.31035C41.2916 6.57949 43.9857 8.39414 46.2902 10.6986C48.6059 13.0143 50.4205 15.6973 51.6785 18.692C52.9922 21.7869 53.649 25.0822 53.649 28.4889C53.649 31.8844 52.9811 35.1797 51.6785 38.2857C50.4094 41.2805 48.5947 43.9746 46.2902 46.2791Z" fill="#1669B1"/>
<path fill-rule="evenodd" clip-rule="evenodd" d="M28.25 26.8125C26.2823 26.8125 24.6875 25.2177 24.6875 23.25C24.6875 21.2823 26.2823 19.6875 28.25 19.6875C30.2177 19.6875 31.8125 21.2823 31.8125 23.25C31.8125 25.2177 30.2177 26.8125 28.25 26.8125ZM28.25 17.3125C24.9713 17.3125 22.3125 19.9701 22.3125 23.25C22.3125 26.5299 24.9713 29.1875 28.25 29.1875C31.5287 29.1875 34.1875 26.5299 34.1875 23.25C34.1875 19.9701 31.5287 17.3125 28.25 17.3125ZM28.25 43.4375C26.2752 43.4482 16.375 28.2149 16.375 23.25C16.375 16.6926 21.6914 11.375 28.25 11.375C34.8086 11.375 40.125 16.6926 40.125 23.25C40.125 28.1484 30.1939 43.4482 28.25 43.4375ZM28.25 9C20.3804 9 14 15.3804 14 23.25C14 29.2089 25.8809 47.0131 28.25 47C30.5822 47.0131 42.5 29.1281 42.5 23.25C42.5 15.3804 36.1196 9 28.25 9Z" fill="#1669B1"/>
</svg>
