<svg width="49" height="49" viewBox="0 0 49 49" fill="none" xmlns="http://www.w3.org/2000/svg">
<path d="M24.9968 17.8428C21.5895 17.8428 18.8397 20.5927 18.8397 24C18.8397 27.4073 21.5895 30.1572 24.9968 30.1572C28.404 30.1572 31.1538 27.4073 31.1538 24C31.1538 20.5927 28.404 17.8428 24.9968 17.8428ZM24.9968 28.0017C22.7933 28.0017 20.9951 26.2035 20.9951 24C20.9951 21.7965 22.7933 19.9983 24.9968 19.9983C27.2002 19.9983 28.9984 21.7965 28.9984 24C28.9984 26.2035 27.2002 28.0017 24.9968 28.0017ZM31.406 16.1557C30.6105 16.1557 29.968 16.7981 29.968 17.5937C29.968 18.3892 30.6105 19.0316 31.406 19.0316C32.2015 19.0316 32.8439 18.3922 32.8439 17.5937C32.8442 17.4048 32.8071 17.2177 32.735 17.0431C32.6628 16.8685 32.5569 16.7099 32.4233 16.5763C32.2897 16.4428 32.1311 16.3369 31.9565 16.2647C31.782 16.1925 31.5949 16.1555 31.406 16.1557ZM36.9987 24C36.9987 22.3429 37.0137 20.7008 36.9206 19.0467C36.8275 17.1254 36.3893 15.4202 34.9843 14.0153C33.5764 12.6073 31.8743 12.172 29.953 12.0789C28.2959 11.9859 26.6539 12.0009 24.9998 12.0009C23.3427 12.0009 21.7006 11.9859 20.0465 12.0789C18.1253 12.172 16.4201 12.6103 15.0152 14.0153C13.6073 15.4232 13.172 17.1254 13.0789 19.0467C12.9859 20.7038 13.0009 22.3459 13.0009 24C13.0009 25.6541 12.9859 27.2992 13.0789 28.9533C13.172 30.8746 13.6103 32.5798 15.0152 33.9847C16.4231 35.3927 18.1253 35.828 20.0465 35.9211C21.7036 36.0141 23.3457 35.9991 24.9998 35.9991C26.6569 35.9991 28.2989 36.0141 29.953 35.9211C31.8743 35.828 33.5794 35.3897 34.9843 33.9847C36.3923 32.5768 36.8275 30.8746 36.9206 28.9533C37.0167 27.2992 36.9987 25.6571 36.9987 24ZM34.3569 31.0788C34.1378 31.6252 33.8736 32.0334 33.4503 32.4537C33.0271 32.877 32.6218 33.1412 32.0754 33.3603C30.4964 33.9877 26.7469 33.8467 24.9968 33.8467C23.2466 33.8467 19.4942 33.9877 17.9151 33.3633C17.3688 33.1442 16.9605 32.88 16.5402 32.4567C16.1169 32.0334 15.8528 31.6282 15.6336 31.0818C15.0092 29.4997 15.1503 25.7502 15.1503 24C15.1503 22.2498 15.0092 18.4973 15.6336 16.9182C15.8528 16.3718 16.1169 15.9636 16.5402 15.5433C16.9635 15.123 17.3688 14.8558 17.9151 14.6367C19.4942 14.0123 23.2466 14.1533 24.9968 14.1533C26.7469 14.1533 30.4994 14.0123 32.0784 14.6367C32.6248 14.8558 33.0331 15.12 33.4533 15.5433C33.8766 15.9666 34.1408 16.3718 34.3599 16.9182C34.9843 18.4973 34.8432 22.2498 34.8432 24C34.8432 25.7502 34.9843 29.4997 34.3569 31.0788Z" fill="#1669B1"/>
<path d="M24.5 0C10.9676 0 0 10.9676 0 24.5C0 38.0324 10.9676 49 24.5 49C38.0324 49 49 38.0324 49 24.5C49 10.9676 38.0324 0 24.5 0ZM39.7934 39.7838C37.8027 41.7744 35.4963 43.3344 32.9219 44.4158C30.2613 45.5451 27.4285 46.1098 24.5 46.1098C21.5811 46.1098 18.7482 45.5355 16.0781 44.4158C13.5037 43.3248 11.1877 41.7648 9.20664 39.7838C7.21602 37.7932 5.65605 35.4867 4.57461 32.9123C3.44531 30.2518 2.87109 27.4189 2.87109 24.5C2.87109 21.5811 3.44531 18.7482 4.56504 16.0781C5.65605 13.5037 7.21602 11.1877 9.19707 9.20664C11.1973 7.21602 13.5037 5.65605 16.0781 4.56504C18.7482 3.44531 21.5811 2.87109 24.5 2.87109C27.4189 2.87109 30.2518 3.44531 32.9219 4.56504C35.4963 5.65605 37.8123 7.21602 39.7934 9.19707C41.784 11.1877 43.3439 13.4941 44.4254 16.0686C45.5547 18.7291 46.1193 21.5619 46.1193 24.4904C46.1193 27.4094 45.5451 30.2422 44.4254 32.9123C43.3344 35.4867 41.7744 37.8027 39.7934 39.7838Z" fill="#1669B1"/>
</svg>
