<svg width="48" height="48" viewBox="0 0 48 48" fill="none" xmlns="http://www.w3.org/2000/svg">
<path fill-rule="evenodd" clip-rule="evenodd" d="M12.7117 11.7828C15.3041 9.19043 19.6787 9.3875 21.4837 12.6218L22.4851 14.4162C23.6638 16.5283 23.1616 19.1931 21.4361 20.9397C21.4131 20.9712 21.2912 21.1486 21.2761 21.4584C21.2568 21.8539 21.3972 22.7686 22.8143 24.1857C24.2309 25.6023 25.1454 25.7432 25.5412 25.7239C25.8513 25.7088 26.0288 25.587 26.0603 25.5639C27.8069 23.8385 30.4718 23.3361 32.5839 24.5148L34.3782 25.5164C37.6125 27.3213 37.8095 31.6959 35.2173 34.2882C33.8306 35.6748 31.9869 36.9069 29.8202 36.9891C26.6094 37.1108 21.2779 36.2816 15.9982 31.0018C10.7184 25.722 9.88919 20.3906 10.0109 17.1798C10.093 15.0131 11.3251 13.1694 12.7117 11.7828ZM19.4627 13.7497C18.5384 12.0936 16.0546 11.7131 14.3483 13.4193C13.152 14.6157 12.3742 15.9362 12.3237 17.2675C12.2222 19.9451 12.8833 24.6139 17.6348 29.3652C22.3862 34.1167 27.0549 34.7777 29.7326 34.6762C31.0639 34.6257 32.3844 33.848 33.5807 32.6516C35.2869 30.9454 34.9064 28.4616 33.2503 27.5374L31.456 26.536C30.3397 25.9129 28.7718 26.1255 27.6711 27.2261C27.563 27.3341 26.8748 27.9763 25.6537 28.0357C24.4034 28.0965 22.8902 27.5347 21.1778 25.8223C19.4647 24.1093 18.9031 22.5956 18.9643 21.3452C19.0242 20.1239 19.6664 19.4364 19.7738 19.3289C20.8744 18.2283 21.087 16.6603 20.4641 15.5441L19.4627 13.7497Z" fill="white"/>
<path d="M24 0C10.7438 0 0 10.7438 0 24C0 37.2562 10.7438 48 24 48C37.2562 48 48 37.2562 48 24C48 10.7438 37.2562 0 24 0ZM38.9812 38.9719C37.0312 40.9219 34.7719 42.45 32.25 43.5094C29.6438 44.6156 26.8688 45.1687 24 45.1687C21.1406 45.1687 18.3656 44.6062 15.75 43.5094C13.2281 42.4406 10.9594 40.9125 9.01875 38.9719C7.06875 37.0219 5.54063 34.7625 4.48125 32.2406C3.375 29.6344 2.8125 26.8594 2.8125 24C2.8125 21.1406 3.375 18.3656 4.47187 15.75C5.54062 13.2281 7.06875 10.9594 9.00937 9.01875C10.9687 7.06875 13.2281 5.54062 15.75 4.47187C18.3656 3.375 21.1406 2.8125 24 2.8125C26.8594 2.8125 29.6344 3.375 32.25 4.47187C34.7719 5.54062 37.0406 7.06875 38.9812 9.00938C40.9312 10.9594 42.4594 13.2187 43.5188 15.7406C44.625 18.3469 45.1781 21.1219 45.1781 23.9906C45.1781 26.85 44.6156 29.625 43.5188 32.2406C42.45 34.7625 40.9219 37.0313 38.9812 38.9719Z" fill="white"/>
</svg>
