<?xml version="1.0" encoding="UTF-8"?> <svg xmlns="http://www.w3.org/2000/svg" width="59" height="61" viewBox="0 0 59 61" fill="none"><path d="M59.0605 0.450923H48.7891C48.2704 0.450923 47.8496 0.871392 47.8496 1.39042C47.8496 1.90932 48.2702 2.32991 48.7891 2.32991H58.1211V25.5032H43.7787C43.7086 25.5032 43.6406 25.5115 43.575 25.526C42.743 25.2554 41.867 25.0846 40.9603 25.0267V23.0606C40.9603 22.9682 40.9555 22.8769 40.9468 22.7866C43.7875 20.724 45.4698 17.445 45.4698 13.9165C45.4698 7.87288 40.5531 2.95616 34.5095 2.95616C28.4659 2.95616 23.5492 7.87288 23.5492 13.9165C23.5492 16.2121 24.255 18.4038 25.5593 20.2421H10.8977V2.32979H44.2798C44.7986 2.32979 45.2193 1.90932 45.2193 1.3903C45.2193 0.871392 44.7987 0.450806 44.2798 0.450806H9.95824C9.43945 0.450923 9.01875 0.871392 9.01875 1.39042V20.2421H2.81836C1.26422 20.2421 0 21.5065 0 23.0605V44.8558C0 46.4099 1.26422 47.6742 2.81836 47.6742H14.2171C14.7359 47.6742 15.1566 47.2537 15.1566 46.7347C15.1566 46.2158 14.736 45.7952 14.2171 45.7952H2.81836C2.30027 45.7952 1.87887 45.3738 1.87887 44.8557V33.3943H29.817C29.6515 34.1412 29.5615 34.9159 29.5615 35.7117V38.4675C29.5615 38.5024 29.5637 38.5367 29.5673 38.5707C28.342 39.218 27.4354 40.3904 27.1507 41.7869H21.4821C20.9633 41.7869 20.5426 42.2074 20.5426 42.7264C20.5426 43.2453 20.9632 43.6659 21.4821 43.6659H27.0563V45.7953H18.4759C17.9571 45.7953 17.5364 46.2158 17.5364 46.7348C17.5364 47.2537 17.957 47.6743 18.4759 47.6743H27.0563V59.5114C27.0563 60.0303 27.4768 60.4509 27.9957 60.4509H52.5469C53.0657 60.4509 53.4864 60.0305 53.4864 59.5114V42.7266C53.4864 40.9278 52.4696 39.3628 50.9811 38.5739V35.7119C50.9811 32.3503 49.423 29.347 46.9924 27.3821H59.0604C59.5792 27.3821 59.9999 26.9617 59.9999 26.4426V1.39042C60 0.871392 59.5794 0.450923 59.0605 0.450923ZM25.4279 13.9165C25.4279 8.90893 29.5018 4.83502 34.5094 4.83502C39.5169 4.83502 43.5908 8.90893 43.5908 13.9165C43.5908 16.723 42.3062 19.339 40.1211 21.0564C39.6118 20.5533 38.9126 20.2421 38.1421 20.2421H35.449V19.3653H36.2632C37.4719 19.3653 38.4553 18.3819 38.4553 17.1732V15.1691C38.4553 13.9604 37.4719 12.977 36.2632 12.977H35.449V10.3466H38.0168C38.5356 10.3466 38.9563 9.92612 38.9563 9.40709C38.9563 8.88819 38.5357 8.4676 38.0168 8.4676H35.449V7.40284C35.449 6.88393 35.0284 6.46334 34.5095 6.46334C33.9906 6.46334 33.57 6.88381 33.57 7.40284V8.4676H32.7558C31.5471 8.4676 30.5637 9.45104 30.5637 10.6597V12.6639C30.5637 13.8725 31.5471 14.856 32.7558 14.856H33.57V17.4865H31.0022C30.4834 17.4865 30.0627 17.9069 30.0627 18.426C30.0627 18.9449 30.4833 19.3655 31.0022 19.3655H33.57V20.2423H27.9948C26.3396 18.5382 25.4279 16.294 25.4279 13.9165ZM35.4489 17.4865V14.856H36.2631C36.4357 14.856 36.5762 14.9964 36.5762 15.1691V17.1732C36.5762 17.346 36.4357 17.4864 36.2631 17.4864L35.4489 17.4865ZM33.57 10.3466V12.9771H32.7558C32.5832 12.9771 32.4427 12.8367 32.4427 12.664V10.6597C32.4427 10.487 32.5832 10.3466 32.7558 10.3466H33.57ZM1.87887 23.0605C1.87887 22.5424 2.30027 22.121 2.81836 22.121H38.142C38.66 22.121 39.0814 22.5424 39.0814 23.0605V25.0698C37.5327 25.2419 36.0831 25.745 34.8045 26.5074C34.7897 26.5069 34.775 26.5052 34.76 26.5052H1.87887V23.0605ZM1.87887 31.5157V28.3842H32.4715C31.6162 29.2939 30.9165 30.3514 30.4187 31.5157H1.87887ZM51.6075 42.7266V58.5721H28.9352V42.7266C28.9352 41.1725 30.1995 39.9082 31.7536 39.9082H48.7891C50.3433 39.9081 51.6075 41.1725 51.6075 42.7266ZM39.0814 33.3946V38.0292H34.4468V35.7118C34.4468 34.8869 34.6201 34.1023 34.9307 33.3905C34.9569 33.3927 34.9835 33.3944 35.0105 33.3944L39.0814 33.3946ZM36.2381 31.5157C37.0126 30.771 37.9911 30.2372 39.0814 30.0099V31.5157H36.2381ZM40.9603 38.0292V29.9293C43.8483 30.2714 46.0961 32.7333 46.0961 35.7118V38.0292H40.9603ZM49.1023 35.7119V38.0409C48.9987 38.034 47.9749 38.0293 47.9749 38.0293V35.7119C47.9749 31.4642 44.5191 28.0084 40.2714 28.0084C36.0237 28.0084 32.5678 31.4642 32.5678 35.7119V38.0293C32.5678 38.0293 31.5441 38.0341 31.4405 38.0409V35.7119C31.4405 30.8426 35.402 26.881 40.2714 26.881C45.1407 26.881 49.1023 30.8424 49.1023 35.7119Z" fill="white"></path><path d="M55.0543 4.45935H47.0376C46.5188 4.45935 46.0981 4.87982 46.0981 5.39884C46.0981 5.91775 46.5187 6.33833 47.0376 6.33833H55.0543C55.5731 6.33833 55.9938 5.91787 55.9938 5.39884C55.9938 4.87982 55.5731 4.45935 55.0543 4.45935Z" fill="white"></path><path d="M55.0541 8.46759H49.0415C48.5228 8.46759 48.1021 8.88806 48.1021 9.40708C48.1021 9.92599 48.5226 10.3466 49.0415 10.3466H55.0541C55.5729 10.3466 55.9936 9.92611 55.9936 9.40708C55.9936 8.88806 55.5729 8.46759 55.0541 8.46759Z" fill="white"></path><path d="M19.9812 4.45935H11.9644C11.4456 4.45935 11.0249 4.87982 11.0249 5.39884C11.0249 5.91775 11.4455 6.33833 11.9644 6.33833H19.9811C20.4999 6.33833 20.9206 5.91787 20.9206 5.39884C20.9206 4.87982 20.5 4.45935 19.9812 4.45935Z" fill="white"></path><path d="M17.9769 8.46759H11.9644C11.4456 8.46759 11.0249 8.88806 11.0249 9.40708C11.0249 9.92599 11.4455 10.3466 11.9644 10.3466H17.9769C18.4957 10.3466 18.9164 9.92611 18.9164 9.40708C18.9164 8.88806 18.4958 8.46759 17.9769 8.46759Z" fill="white"></path><path d="M55.0541 22.4968H52.0479C51.5291 22.4968 51.1084 22.9173 51.1084 23.4363C51.1084 23.9553 51.529 24.3758 52.0479 24.3758H55.0541C55.5729 24.3758 55.9936 23.9553 55.9936 23.4363C55.9936 22.9173 55.5729 22.4968 55.0541 22.4968Z" fill="white"></path><path d="M48.0395 22.4968H45.0332C44.5145 22.4968 44.0938 22.9173 44.0938 23.4363C44.0938 23.9553 44.5143 24.3758 45.0332 24.3758H48.0395C48.5582 24.3758 48.9789 23.9553 48.9789 23.4363C48.9789 22.9173 48.5582 22.4968 48.0395 22.4968Z" fill="white"></path><path d="M16.4738 13.4781C15.127 13.4781 14.0312 14.5739 14.0312 15.9206C14.0312 17.2673 15.1271 18.3632 16.4738 18.3632C17.8205 18.3632 18.9163 17.2673 18.9163 15.9206C18.9163 14.5739 17.8205 13.4781 16.4738 13.4781ZM16.4738 16.4843C16.163 16.4843 15.9101 16.2314 15.9101 15.9206C15.9101 15.6098 16.163 15.357 16.4738 15.357C16.7846 15.357 17.0375 15.6098 17.0375 15.9206C17.0375 16.2314 16.7846 16.4843 16.4738 16.4843Z" fill="white"></path><path d="M50.5451 13.4781C49.1982 13.4781 48.1025 14.5739 48.1025 15.9206C48.1025 17.2673 49.1984 18.3632 50.5451 18.3632C51.8919 18.3632 52.9876 17.2673 52.9876 15.9206C52.9876 14.5739 51.8918 13.4781 50.5451 13.4781ZM50.5451 16.4843C50.2343 16.4843 49.9814 16.2314 49.9814 15.9206C49.9814 15.6098 50.2343 15.357 50.5451 15.357C50.8559 15.357 51.1088 15.6098 51.1088 15.9206C51.1088 16.2314 50.8559 16.4843 50.5451 16.4843Z" fill="white"></path><path d="M39.2715 41.2859C34.8856 41.2859 31.3174 44.8541 31.3174 49.2401C31.3174 53.626 34.8855 57.1942 39.2715 57.1942C43.6573 57.1942 47.2256 53.626 47.2256 49.2401C47.2256 44.8541 43.6575 41.2859 39.2715 41.2859ZM39.2715 55.3152C35.9217 55.3152 33.1964 52.5899 33.1964 49.2401C33.1964 45.8902 35.9217 43.1649 39.2715 43.1649C42.6213 43.1649 45.3466 45.8902 45.3466 49.2401C45.3466 52.5899 42.6214 55.3152 39.2715 55.3152Z" fill="white"></path><path d="M43.4857 46.8677C43.144 46.4772 42.5506 46.4379 42.16 46.7793L38.8489 49.6766L37.214 47.86C36.8669 47.4743 36.2729 47.4431 35.8872 47.7902C35.5015 48.1374 35.4702 48.7314 35.8173 49.117L38.072 51.6223C38.2574 51.8282 38.5135 51.9332 38.7706 51.9332C38.9903 51.9332 39.2109 51.8567 39.389 51.7008L43.3974 48.1935C43.7877 47.8517 43.8273 47.2582 43.4857 46.8677Z" fill="white"></path></svg> 