<?xml version="1.0" encoding="UTF-8"?> <svg xmlns="http://www.w3.org/2000/svg" width="26" height="28" viewBox="0 0 26 28" fill="none"><path d="M8.7971 1.70085C7.83127 1.34092 6.9164 1 5.5 1C2.5 1 1 4.05882 1 7.88235C1 10.3271 1.61328 11.834 2.25162 13.4025C2.6116 14.2871 2.97956 15.1911 3.25 16.2941C3.4735 17.2056 3.5638 18.5246 3.65982 19.9272C3.88602 23.2315 4.144 27 6.25 27C7.59847 27 8.18929 24.837 8.83978 22.4555C9.63647 19.5386 10.5227 16.2941 13 16.2941C15.4772 16.2941 16.3634 19.5386 17.1602 22.4555C17.8106 24.837 18.4015 27 19.75 27C21.856 27 22.114 23.2315 22.3402 19.9272C22.4362 18.5246 22.5265 17.2056 22.75 16.2941C23.0204 15.1911 23.3884 14.2871 23.7484 13.4025C24.3868 11.834 25 10.3271 25 7.88235C25 4.05882 23.5 1 20.5 1C19.0835 1 18.1687 1.34092 17.2028 1.70085C16.123 2.10326 14.9795 2.52941 13 2.52941C11.0204 2.52941 9.87694 2.10326 8.7971 1.70085Z" stroke="white" stroke-width="1.75" stroke-linecap="round" stroke-linejoin="round"></path></svg> 