<?xml version="1.0" encoding="UTF-8"?> <svg xmlns="http://www.w3.org/2000/svg" width="38" height="45" viewBox="0 0 38 45" fill="none"><path d="M34.0786 14.669C34.5929 14.2633 35.0088 13.7223 35.2634 13.0764L36.0766 11.0138C36.3387 10.3491 36.1953 9.61461 35.7024 9.09701C35.2094 8.57937 34.4828 8.40034 33.8062 8.62975L32.7761 8.97891L32.2616 8.02084C31.9119 7.36963 31.2267 7.01278 30.5214 7.06999C30.0446 6.54719 29.3005 6.34054 28.6017 6.57761L27.5707 6.92663L27.056 5.96844C26.7068 5.31794 26.0218 4.9611 25.3165 5.0179C24.8399 4.49465 24.0957 4.28795 23.3958 4.52531L22.3655 4.87445L21.8504 3.91608C21.5015 3.26604 20.8167 2.90918 20.1114 2.96554C19.6342 2.44272 18.8899 2.23615 18.1912 2.47321L17.1602 2.82222L16.6454 1.86389C16.3072 1.23464 15.6543 0.869658 14.9412 0.911617C14.2277 0.953511 13.6218 1.39259 13.3597 2.05741L12.5465 4.11997C12.2918 4.76607 12.2265 5.44526 12.3253 6.09283C11.0039 6.66687 8.81098 11.2734 8.30591 15.7156C7.99485 18.4511 8.23895 21.0802 9.0315 23.5299C9.8919 26.1897 11.4026 28.6355 13.5279 30.8175C12.7275 30.9485 11.9832 31.2029 11.3044 31.5797C11.007 31.7448 10.8999 32.1195 11.065 32.4168C11.23 32.714 11.6047 32.8212 11.902 32.6562C12.6298 32.2521 13.4579 32.02 14.3687 31.9609C14.4011 32.6766 14.4128 33.9931 14.1914 35.4592C14.1477 35.7484 14.3127 36.021 14.5737 36.1237C14.6162 36.1404 14.6612 36.1527 14.7083 36.1598C15.0445 36.2105 15.3581 35.9792 15.4089 35.6429C15.5553 34.6722 15.6074 33.7719 15.6173 33.0426C16.3439 34.1432 16.6378 35.392 16.4897 36.773C16.3804 37.7936 16.0488 38.6314 15.8488 39.0612C15.4016 39.0429 14.9584 38.9978 14.5208 38.9273C14.6299 38.667 14.7315 38.3975 14.8243 38.1204C14.9322 37.7979 14.7557 37.4478 14.4361 37.3411C14.1136 37.233 13.7648 37.4069 13.6566 37.7293C13.548 38.0534 13.4259 38.3634 13.2938 38.6588C11.7236 38.2209 10.2595 37.4421 9.00514 36.3631C9.17749 35.836 9.59863 34.7797 10.4365 33.8392C10.6626 33.5854 10.6403 33.1962 10.3863 32.97C10.1325 32.744 9.74334 32.7663 9.51709 33.0202C8.79107 33.8352 8.33943 34.7115 8.08843 35.3031C7.97419 35.5723 7.87593 35.8404 7.79646 36.0997C7.69163 36.4419 7.66929 36.5462 7.70776 36.7079C7.73606 36.8271 7.7996 36.9353 7.88975 37.0183C9.02808 38.0657 10.3361 38.8807 11.7468 39.4369C13.1572 39.9929 14.6701 40.2901 16.2167 40.3012C16.4362 40.3028 16.64 40.1874 16.7514 39.9983C16.7823 39.9459 17.5104 38.6948 17.7082 36.9547C17.863 35.594 17.7079 33.712 16.3268 31.9213C24.4754 31.539 29.0655 26.8569 31.51 22.8762C31.688 22.5865 31.5973 22.2074 31.3076 22.0295C31.0178 21.8517 30.6388 21.9422 30.4609 22.232C28.0886 26.0946 23.5555 30.6633 15.3822 30.7149C14.0688 26.7145 14.7638 22.9355 15.5987 20.4359C15.7063 20.1133 15.53 19.7633 15.2098 19.6569C14.8873 19.5492 14.5385 19.7233 14.4308 20.0458C13.6678 22.3301 13.0168 25.6169 13.7214 29.2139C12.0962 27.3703 10.9174 25.3478 10.211 23.1767C9.47065 20.9013 9.23956 18.4528 9.52397 15.8991C9.7762 13.6353 10.395 11.6829 10.9375 10.3188C11.3006 11.1741 11.9504 12.0731 12.8735 12.9783C13.8432 13.9293 15.0646 14.8403 16.4576 15.6662C16.1522 16.1621 15.6947 16.9657 15.2247 18.0134C15.0855 18.3237 15.2242 18.688 15.5344 18.8271C15.5432 18.8311 15.5521 18.8348 15.5611 18.8384C15.8652 18.9583 16.213 18.8189 16.3482 18.5174C16.8047 17.4998 17.252 16.7231 17.5334 16.2689C18.4276 16.7418 19.3773 17.1793 20.3676 17.5698C23.4001 18.7654 26.4582 19.3897 28.9787 19.3279C30.2728 19.2962 31.3624 19.082 32.212 18.7037C31.9936 19.2638 31.7176 19.9036 31.3741 20.5888C31.2218 20.8928 31.3447 21.2627 31.6486 21.415C31.6654 21.4235 31.6823 21.431 31.6994 21.4377C31.9926 21.5533 32.3308 21.4278 32.4749 21.1406C33.6035 18.8893 34.5259 16.2363 34.0786 14.669ZM31.1767 8.60327L31.938 10.0205C32.0803 10.2854 32.3931 10.4087 32.6779 10.3122L34.2014 9.79581C34.5286 9.68489 34.7505 9.88285 34.8108 9.94613C34.8711 10.0094 35.0578 10.2409 34.9312 10.5621L34.118 12.6247C33.7313 13.6055 32.7983 14.2313 31.7889 14.2619L32.33 12.8895C32.5251 12.3946 32.4997 11.8649 32.2586 11.3979C31.8778 10.6607 31.0741 10.2856 30.2855 10.4466L30.871 8.96147C30.9438 8.77689 30.9858 8.58752 30.9975 8.39836C31.0665 8.44688 31.1286 8.51377 31.1767 8.60327ZM25.9713 6.55101L26.7323 7.96807C26.8746 8.23291 27.1873 8.3563 27.472 8.25988L28.9968 7.74376C29.3233 7.63301 29.5932 7.81706 29.7057 8.03487C29.7593 8.13868 29.8062 8.30528 29.7256 8.50986L28.9124 10.5724C28.9076 10.5845 28.902 10.5961 28.8971 10.6081L28.5149 9.89658C28.1657 9.24601 27.4807 8.88921 26.7754 8.94597C26.3499 8.47883 25.711 8.26568 25.0808 8.39412L25.6662 6.90942C25.7389 6.72491 25.7809 6.53575 25.7926 6.34678C25.8617 6.39523 25.9234 6.46196 25.9713 6.55101ZM20.7656 4.49888L21.5275 5.91622C21.6698 6.18099 21.9828 6.3043 22.2674 6.20783L23.7911 5.69146C24.1181 5.58064 24.3877 5.76436 24.5006 5.9835C24.5541 6.08705 24.6013 6.25344 24.5207 6.45782L23.7076 8.52038C23.7027 8.53261 23.6971 8.54426 23.6921 8.55637L23.3093 7.84415C22.9597 7.19303 22.274 6.83629 21.5681 6.89375C21.5604 6.8854 21.5534 6.87656 21.5456 6.86838C21.1072 6.40805 20.4842 6.2165 19.8756 6.3409L20.4606 4.85709C20.5333 4.67285 20.5753 4.48364 20.587 4.29448C20.656 4.34293 20.7178 4.40969 20.7656 4.49888ZM15.0132 2.14079C15.1004 2.13573 15.3971 2.14258 15.5605 2.44664L16.3217 3.8638C16.4641 4.12866 16.7769 4.25206 17.0615 4.15561L18.5862 3.63949C18.9128 3.52867 19.1831 3.71282 19.2949 3.92863C19.3486 4.03318 19.3956 4.20076 19.3149 4.40547L18.5018 6.46803C18.497 6.48019 18.4913 6.49184 18.4863 6.50395L18.1039 5.79212C17.7658 5.16272 17.1126 4.79769 16.3992 4.83961C15.686 4.88161 15.0799 5.32057 14.8178 5.98532L14.2765 7.3582C13.5595 6.64733 13.3047 5.55311 13.6916 4.57176L14.5049 2.50907C14.6317 2.18763 14.9261 2.14585 15.0132 2.14079ZM15.3199 13.4395C14.7353 13.0056 14.2026 12.5572 13.7357 12.0993C12.2034 10.5968 11.5489 9.16642 11.9397 8.17507C12.0754 7.83077 12.336 7.53475 12.7162 7.29042C12.98 7.79616 13.3584 8.24532 13.8349 8.59527C13.4651 10.2049 14.1849 11.8825 15.6012 12.7258L15.3198 13.4395L15.3199 13.4395ZM15.1501 8.49951L15.9634 6.43682C16.0901 6.11549 16.3843 6.07375 16.4715 6.06869C16.5167 6.06604 16.6179 6.06661 16.728 6.11001C16.8305 6.15044 16.9405 6.22805 17.0193 6.37475L17.7808 7.79206C17.9231 8.05692 18.2359 8.18032 18.5207 8.08379L20.0446 7.56748C20.3716 7.45669 20.5936 7.65433 20.6538 7.71758C20.714 7.78083 20.9007 8.0121 20.774 8.33343L19.9607 10.3961C19.4379 11.7224 17.9335 12.376 16.6071 11.8531C15.2809 11.3302 14.6273 9.82577 15.1501 8.49951ZM20.2493 16.1922C19.3328 15.8076 18.4588 15.3827 17.6414 14.9279C17.6352 14.9242 17.6289 14.9208 17.6226 14.9173C17.1844 14.6729 16.7618 14.4205 16.3593 14.1603L16.7467 13.1775C17.5941 13.3617 18.458 13.2454 19.2072 12.8858C19.5149 13.6737 20.077 14.3408 20.8074 14.7766L20.2493 16.1922ZM20.2578 12.1421C20.6161 11.7837 20.9088 11.3485 21.1062 10.8477L21.9195 8.78497C21.9923 8.60032 22.0327 8.41032 22.0441 8.22108C22.1139 8.26966 22.1764 8.33691 22.2246 8.42691L22.9867 9.84437C23.1288 10.1091 23.4418 10.2323 23.7264 10.1359L25.2501 9.61949C25.5771 9.50867 25.8467 9.69239 25.9596 9.91153C26.0131 10.0151 26.0603 10.1815 25.9798 10.3858L25.1666 12.4484C25.0048 12.8587 24.7408 13.2214 24.4023 13.498C23.677 14.0931 22.6848 14.2493 21.8129 13.9055C21.0369 13.5996 20.4626 12.939 20.2578 12.1421ZM25.6243 17.8131C24.2664 17.5698 22.8346 17.1754 21.3949 16.6438L21.953 15.2282C22.7843 15.4082 23.6502 15.3042 24.4124 14.9386C24.7202 15.7262 25.2821 16.393 26.0124 16.8287L25.6243 17.8131ZM25.4626 14.1942C25.8287 13.8273 26.1201 13.3867 26.312 12.9L27.1252 10.8374C27.1979 10.6529 27.2398 10.4638 27.2516 10.2748C27.3206 10.3232 27.3824 10.39 27.4302 10.4791L28.1915 11.8962C28.3338 12.1611 28.6465 12.2845 28.9313 12.188L30.4559 11.6718C30.7825 11.561 31.0524 11.7452 31.1649 11.963C31.2185 12.0668 31.2655 12.2334 31.1848 12.438L30.3716 14.5005C30.2099 14.9108 29.9459 15.2734 29.6073 15.55C28.882 16.1452 27.8897 16.3014 27.0177 15.9576C26.2417 15.6516 25.6673 14.9911 25.4626 14.1942ZM28.9486 18.0971C28.2947 18.1131 27.5993 18.0773 26.8757 17.9957L27.1578 17.2802C28.2855 17.5243 29.4787 17.248 30.3871 16.5027C30.7397 16.2147 31.0364 15.8622 31.2653 15.4677C31.8531 15.5374 32.4367 15.4672 32.9752 15.2775C33.0863 15.7158 33.0751 16.1103 32.9394 16.4544C32.5486 17.4457 31.0939 18.0445 28.9486 18.0971Z" fill="white"></path></svg> 