<?xml version="1.0" encoding="UTF-8"?> <svg xmlns="http://www.w3.org/2000/svg" width="36" height="35" viewBox="0 0 36 35" fill="none"><path fill-rule="evenodd" clip-rule="evenodd" d="M5.54837 6.85347C4.01223 8.4394 3.14767 10.5886 3.14767 12.8297C3.14767 15.0719 4.01223 17.2211 5.54837 18.806L16.0419 29.633C16.6611 30.2717 17.5017 30.6283 18.3782 30.6283C19.2537 30.6283 20.0953 30.2717 20.7146 29.633C22.6149 27.6719 31.1994 18.7972 31.1994 18.7972C32.7355 17.2124 33.6001 15.0632 33.6001 12.821C33.6001 10.5788 32.7355 8.43065 31.1994 6.84472C29.6523 5.24894 27.5525 4.35425 25.3644 4.35425C23.1763 4.35425 21.0776 5.24894 19.5306 6.84472L18.3695 8.04237L17.2171 6.85347C15.6701 5.25769 13.5714 4.363 11.3833 4.363C9.1952 4.363 7.09541 5.25769 5.54837 6.85347ZM7.11176 8.37925C8.24451 7.21003 9.78065 6.5505 11.3833 6.5505C12.9859 6.5505 14.521 7.21003 15.6537 8.37925L17.5878 10.3742C17.7928 10.5853 18.0751 10.7057 18.3695 10.7057C18.6639 10.7057 18.9462 10.5853 19.1512 10.3742L21.094 8.3694C22.2268 7.20128 23.7618 6.54175 25.3644 6.54175C26.9671 6.54175 28.5021 7.20128 29.636 8.3694C29.6392 8.37378 29.6425 8.37706 29.6469 8.38143C30.7796 9.55065 31.4196 11.1519 31.4196 12.821C31.4196 14.49 30.7796 16.0924 29.636 17.2725C29.636 17.2725 21.0515 26.1472 19.1512 28.1083C18.9462 28.3194 18.6682 28.4408 18.3782 28.4408C18.0882 28.4408 17.8102 28.3194 17.6053 28.1083L7.11176 17.2813C5.96811 16.1011 5.32814 14.4988 5.32814 12.8297C5.32814 11.1607 5.96811 9.5594 7.11176 8.37925Z" fill="white"></path><path fill-rule="evenodd" clip-rule="evenodd" d="M17.2836 16.4096H15.1064C14.5046 16.4096 14.0162 16.8996 14.0162 17.5033C14.0162 18.1071 14.5046 18.5971 15.1064 18.5971H17.2836V20.7813C17.2836 21.385 17.7721 21.875 18.3739 21.875C18.9757 21.875 19.4641 21.385 19.4641 20.7813V18.5971H21.6413C22.2431 18.5971 22.7315 18.1071 22.7315 17.5033C22.7315 16.8996 22.2431 16.4096 21.6413 16.4096H19.4641V14.2253C19.4641 13.6216 18.9757 13.1316 18.3739 13.1316C17.7721 13.1316 17.2836 13.6216 17.2836 14.2253V16.4096Z" fill="white"></path></svg> 