<?xml version="1.0" encoding="UTF-8"?> <svg xmlns="http://www.w3.org/2000/svg" width="37" height="30" viewBox="0 0 37 30" fill="none"><path d="M8.68001 6.38931C9.0073 7.34668 9.62451 8.13495 10.3954 8.67557C11.1667 9.21691 12.0944 9.51855 13.0583 9.51912C13.5566 9.51912 14.0632 9.43775 14.556 9.26923L14.5577 9.26865C15.5145 8.94144 16.3025 8.32443 16.8432 7.55322C17.3844 6.78258 17.6864 5.85484 17.6867 4.89067C17.6867 4.39269 17.6053 3.88496 17.436 3.39095C17.109 2.43474 16.492 1.64647 15.7214 1.1052C14.9505 0.563932 14.023 0.261719 13.0586 0.261719C12.5608 0.261719 12.0531 0.342584 11.558 0.512768C10.6015 0.839986 9.81349 1.45699 9.27338 2.2277C8.73182 2.99833 8.4299 3.926 8.42961 4.89017C8.42961 5.38707 8.51069 5.89307 8.67892 6.38592L8.68001 6.38931ZM11.1806 3.56735C11.4515 3.18377 11.834 2.88264 12.3144 2.71816L12.2139 2.75234L12.3158 2.71701C12.5637 2.63217 12.8121 2.59293 13.0586 2.59293C13.533 2.59235 13.9969 2.74266 14.3807 3.013C14.7646 3.28393 15.0654 3.66643 15.2305 4.14627V4.14678C15.3159 4.39551 15.3554 4.64483 15.3554 4.89067C15.3557 5.36539 15.2054 5.82926 14.9357 6.21342C14.6647 6.59765 14.2822 6.89813 13.8019 7.06319H13.8035C13.5537 7.14803 13.3038 7.18727 13.0582 7.18727C12.5833 7.18785 12.1194 7.03761 11.7355 6.76784C11.3525 6.49807 11.0521 6.11673 10.8868 5.63754L10.8857 5.63465C10.8003 5.38475 10.7607 5.13602 10.7607 4.89017C10.7606 4.41546 10.9108 3.95159 11.1806 3.56735Z" fill="white"></path><path d="M8.67972 6.38933C8.6795 6.38817 8.6795 6.38702 8.67885 6.38586L8.64835 6.29712L8.67972 6.38933Z" fill="white"></path><path d="M22.6168 9.00751L22.4591 8.95346L22.618 9.00809C23.1118 9.17712 23.6186 9.25799 24.116 9.25799C25.0805 9.25741 26.0079 8.95577 26.7791 8.4145C27.5501 7.87381 28.1674 7.08547 28.4946 6.12875C28.6639 5.63417 28.7451 5.12701 28.7451 4.62903C28.7448 3.66486 28.4428 2.73712 27.9013 1.96598C27.3609 1.19534 26.5723 0.577762 25.6152 0.25105L25.6157 0.251556C25.1223 0.0819491 24.6149 0 24.116 0C23.1519 0.000578123 22.2241 0.302792 21.4532 0.844059C20.6826 1.38475 20.0653 2.17302 19.7386 3.13039C19.5692 3.62389 19.4879 4.13155 19.4879 4.62961C19.4882 5.59377 19.7901 6.52151 20.3313 7.29208C20.872 8.06264 21.66 8.68022 22.6168 9.00751ZM21.944 3.88556C22.1091 3.40464 22.4098 3.02214 22.7938 2.75121C23.1777 2.48137 23.6412 2.33114 24.116 2.33114C24.3609 2.33114 24.6103 2.37103 24.8599 2.4563L24.8604 2.45688C25.3409 2.62135 25.723 2.9219 25.994 3.30607C26.2638 3.69023 26.414 4.1541 26.4137 4.62881C26.4137 4.87473 26.3741 5.12397 26.289 5.37329C26.124 5.85313 25.8229 6.23556 25.439 6.50655C25.0551 6.77639 24.5909 6.92656 24.116 6.92656C23.87 6.92656 23.6205 6.88667 23.3715 6.8019L23.5292 6.85596L23.3726 6.80248C22.8923 6.63685 22.5098 6.33579 22.2389 5.95214C21.9691 5.5679 21.8189 5.10403 21.8191 4.62939C21.8191 4.38362 21.8587 4.1343 21.944 3.88556Z" fill="white"></path><path d="M36.1561 10.9694C35.6157 10.1987 34.8271 9.58121 33.87 9.2545H33.8706C33.3771 9.08547 32.8697 9.00345 32.3709 9.00403C31.4067 9.00403 30.479 9.30567 29.7081 9.84751C28.9374 10.3882 28.3202 11.1771 27.9935 12.1338C27.8242 12.6273 27.7428 13.135 27.7428 13.6336C27.743 14.5972 28.045 15.525 28.5863 16.2956C29.1271 17.0668 29.915 17.6838 30.8718 18.011L30.8729 18.0116C31.3666 18.1801 31.8735 18.2615 32.371 18.2615C33.3354 18.2609 34.2629 17.9593 35.0341 17.418C35.805 16.8773 36.4222 16.089 36.7495 15.1316C36.9188 14.6376 37 14.1305 37 13.6324C36.9996 12.6683 36.6976 11.7406 36.1561 10.9694ZM34.5439 14.377C34.3789 14.8567 34.0778 15.2392 33.6939 15.5102C33.31 15.7799 32.8458 15.9302 32.3708 15.9296C32.1249 15.9296 31.8754 15.8903 31.6263 15.8055H31.6275C31.1472 15.6404 30.7647 15.3394 30.4937 14.9552C30.224 14.5716 30.0737 14.1078 30.074 13.6336C30.074 13.3877 30.1135 13.1385 30.1989 12.8892C30.3639 12.4082 30.6647 12.0257 31.0487 11.7548C31.4325 11.4851 31.8961 11.3348 32.3708 11.3354C32.6158 11.3354 32.8651 11.3747 33.1147 11.46L33.1152 11.4606C33.5956 11.6251 33.9778 11.9262 34.2487 12.3098C34.5185 12.6934 34.6687 13.1579 34.6685 13.6326C34.6686 13.8783 34.629 14.1276 34.5439 14.377Z" fill="white"></path><path d="M9.00672 15.1316C9.17604 14.6376 9.25719 14.1304 9.25719 13.6324C9.2569 12.6682 8.9549 11.7405 8.41335 10.9692C7.87295 10.1986 7.08439 9.58109 6.12731 9.25438L6.12557 9.2538C5.63301 9.08535 5.12614 9.00333 4.62809 9.00391C3.66393 9.00391 2.73618 9.30554 1.96526 9.84739C1.19469 10.3882 0.5774 11.177 0.250688 12.1338V12.1333C0.0813708 12.6273 0 13.135 0 13.6336C0.000289061 14.5972 0.302214 15.5249 0.843481 16.2956C1.38424 17.0668 2.17222 17.6837 3.12894 18.011L3.1301 18.0116C3.62382 18.1801 4.13069 18.2615 4.62816 18.2615C5.59261 18.2609 6.52007 17.9592 7.29128 17.4179C8.06221 16.8772 8.6795 16.0889 9.00672 15.1316ZM6.80118 14.3769C6.63613 14.8567 6.335 15.2392 5.95112 15.5101C5.56725 15.7799 5.10309 15.9301 4.62809 15.9295C4.38224 15.9295 4.13264 15.8903 3.88361 15.8055H3.88477C3.40442 15.6404 3.02192 15.3393 2.751 14.9552C2.48116 14.5716 2.33092 14.1077 2.33128 13.6336C2.33128 13.3871 2.37081 13.1384 2.45615 12.8891L2.45702 12.8868C2.62236 12.407 2.92255 12.0251 3.30585 11.7547C3.6898 11.485 4.15338 11.3347 4.62802 11.3353C4.87307 11.3353 5.12231 11.3746 5.37192 11.4599L5.59247 11.5357L5.37249 11.4605C5.85284 11.625 6.23505 11.926 6.50605 12.3097C6.77574 12.6933 6.92605 13.1578 6.92577 13.6324C6.92584 13.8783 6.88631 14.1276 6.80118 14.3769Z" fill="white"></path><path d="M24.46 13.2694C23.5698 12.559 22.6057 11.9706 21.592 11.5528C20.5789 11.1361 19.5127 10.8903 18.4312 10.8903C16.9884 10.8914 15.5766 11.3251 14.2741 12.0257C12.3201 13.0803 10.5867 14.7377 9.30698 16.6638C8.03323 18.5904 7.2016 20.796 7.19654 23.0055C7.19654 23.808 7.30986 24.6093 7.56076 25.3829C7.82569 26.2008 8.18116 26.8991 8.62118 27.4786C9.27858 28.3505 10.1309 28.9322 11.0148 29.2589C11.9007 29.5884 12.809 29.6863 13.6787 29.6868C14.6355 29.6863 15.5558 29.5673 16.3789 29.4575C17.199 29.3459 17.9295 29.2468 18.4313 29.2492C18.9327 29.2469 19.6635 29.346 20.4834 29.4575C21.3067 29.5673 22.227 29.6863 23.1838 29.6868C24.3392 29.6858 25.5808 29.5133 26.7152 28.8462C27.2789 28.5138 27.8026 28.0579 28.2414 27.4786C28.6813 26.8991 29.0368 26.2008 29.3018 25.3834C29.5528 24.6094 29.666 23.808 29.666 23.0055C29.6649 21.5331 29.2895 20.0607 28.6677 18.6731C27.7307 16.5927 26.2384 14.6911 24.46 13.2694ZM27.0842 24.664C26.8867 25.273 26.6448 25.7255 26.3841 26.0693C25.9905 26.5821 25.5588 26.8741 25.0314 27.075C24.5058 27.2725 23.8755 27.3562 23.1837 27.3556C22.4242 27.3562 21.6011 27.256 20.7934 27.1474C19.983 27.0398 19.1955 26.9203 18.4311 26.918C17.6668 26.9202 16.8793 27.0398 16.0688 27.1467C15.2612 27.256 14.4382 27.3562 13.6786 27.3556C12.7523 27.3568 11.9517 27.2071 11.3331 26.8388C11.0203 26.6527 10.74 26.4126 10.4782 26.0693C10.2175 25.7255 9.97565 25.2731 9.77808 24.664C9.60956 24.1438 9.52761 23.5894 9.52761 23.0055C9.52652 21.9366 9.80792 20.7704 10.3216 19.628C11.088 17.9143 12.3765 16.2688 13.8558 15.0918C14.5946 14.5022 15.3786 14.0286 16.1572 13.7088C16.9363 13.3877 17.7064 13.221 18.431 13.2215C19.396 13.2204 20.4467 13.5198 21.4834 14.0787C23.0383 14.9119 24.5372 16.3257 25.6124 17.9518C26.6934 19.5762 27.3394 21.4032 27.3344 23.0054C27.3347 23.5894 27.2526 24.1438 27.0842 24.664Z" fill="white"></path></svg> 