<?xml version="1.0" encoding="UTF-8"?> <svg xmlns="http://www.w3.org/2000/svg" width="56" height="56" viewBox="0 0 56 56" fill="none"><path d="M52.0612 34.5919C51.2719 34.26 50.355 34.0669 49.3931 34.0669C48.3113 34.0669 47.2875 34.3106 46.3725 34.7456L46.4156 34.7269L35.5819 39.5925C35.5875 39.5044 35.6306 39.4294 35.6306 39.3412C35.6025 36.7706 33.5137 34.6987 30.9394 34.6987C30.81 34.6987 30.6825 34.7044 30.5569 34.7137L30.5737 34.7119H23.4806L14.5556 32.0962C14.4394 32.0587 14.3063 32.0381 14.1675 32.0381H14.16H10.0931V30.6187C10.0931 29.8425 9.46313 29.2125 8.68688 29.2125H1.40625C0.63 29.2125 0 29.8425 0 30.6187V53.5087C0 54.285 0.63 54.915 1.40625 54.915H8.68688C9.46313 54.915 10.0931 54.285 10.0931 53.5087V51.6244C13.5019 52.1569 16.5525 53.0156 19.4437 54.1875L19.1644 54.0862C21.3206 54.8662 23.8106 55.3162 26.4056 55.3162C26.4187 55.3162 26.4319 55.3162 26.445 55.3162H26.4431C26.4525 55.3162 26.4637 55.3162 26.475 55.3162C29.4825 55.3162 32.3494 54.7181 34.965 53.6325L34.8187 53.6869C37.1494 52.65 39.1275 51.5569 41.0006 50.3137L40.8469 50.4094C41.4806 50.0175 42.1106 49.6256 42.7481 49.2487C45.81 47.4356 48.27 45.8437 50.49 44.2387C51.5756 43.4662 52.5206 42.7031 53.4206 41.8894L53.3944 41.9137C54.0937 41.3475 54.6525 40.635 55.0275 39.8212L55.0425 39.7856C55.1006 39.6375 55.1325 39.4669 55.1325 39.2869C55.1325 39.18 55.1212 39.0769 55.0987 38.9775L55.1006 38.9869C54.8269 37.08 53.685 35.4881 52.095 34.605L52.065 34.59L52.0612 34.5919ZM7.28063 52.1044H2.8125V32.025H7.28063V52.1044ZM51.4144 39.9169C50.6419 40.6106 49.8019 41.2837 48.9244 41.9081L48.8362 41.9681C46.6931 43.5169 44.3025 45.0619 41.31 46.8356C40.6575 47.22 40.0144 47.6194 39.3656 48.0187C37.7644 49.0931 35.9213 50.1187 33.9956 50.9925L33.7519 51.0919C31.5919 51.9806 29.0831 52.4944 26.4544 52.4944C24.1987 52.4944 22.0312 52.1137 20.0119 51.4162L20.1506 51.4575C17.235 50.2425 13.845 49.3106 10.3106 48.8194L10.0912 48.795V34.8525H13.9575L22.8825 37.4681C22.9987 37.5056 23.1319 37.5262 23.2706 37.5262H23.2781H30.5719C32.2275 37.5262 32.8162 38.5031 32.8162 39.3431C32.8162 40.1831 32.2275 41.16 30.5719 41.16H17.805C17.0287 41.16 16.3987 41.79 16.3987 42.5662C16.3987 43.3425 17.0287 43.9725 17.805 43.9725H32.3944H32.4019C32.6081 43.9725 32.8031 43.9275 32.9775 43.845L32.97 43.8487L47.5856 37.2862C48.1256 37.0387 48.7575 36.8944 49.4231 36.8944C49.92 36.8944 50.3981 36.975 50.8444 37.1231L50.8125 37.1137C51.5306 37.545 52.0462 38.2462 52.2225 39.075L52.2263 39.0956C51.9713 39.3937 51.705 39.6619 51.4219 39.9112L51.4125 39.9187L51.4144 39.9169ZM28.3762 29.04C28.635 29.3269 29.0062 29.505 29.4206 29.505C29.835 29.505 30.2062 29.3269 30.4631 29.0419L30.465 29.04L41.6569 16.635C43.6856 14.7469 44.9831 12.0956 45.0919 9.14062V9.12187C45.0919 9.09937 45.0919 9.07312 45.0919 9.04687C45.0919 6.54938 44.0737 4.29187 42.4294 2.6625C40.7344 1.01625 38.4206 0 35.8669 0C33.3656 0 31.0931 0.975 29.4075 2.56312L29.4131 2.55938C27.8175 1.20375 25.7344 0.37875 23.4581 0.37875C22.6481 0.37875 21.8644 0.48375 21.1163 0.67875L21.18 0.66375C17.8912 1.5975 15.3544 4.13625 14.4356 7.35563L14.4188 7.425C14.2425 8.1075 14.1413 8.88937 14.1413 9.6975C14.1413 12.4256 15.3019 14.8837 17.1581 16.6031L17.1637 16.6087L28.3762 29.04ZM17.1356 8.15437C17.7937 5.83312 19.5844 4.0425 21.8569 3.39375L21.9056 3.3825C22.3725 3.25125 22.9106 3.17625 23.4656 3.17625C25.4306 3.24 27.1837 4.10063 28.4212 5.44313L28.425 5.44875C28.68 5.70375 29.0306 5.86125 29.4188 5.86125C29.8069 5.86125 30.1594 5.70375 30.4125 5.44875C31.8037 3.915 33.7687 2.92312 35.9644 2.81062H35.9831H36.03C39.4837 2.83312 42.2737 5.63813 42.2737 9.09375C42.2737 9.0975 42.2737 9.09937 42.2737 9.10312C42.1612 11.3194 41.1694 13.2825 39.6431 14.67L39.6375 14.6756L39.5869 14.7281L29.4169 26.0025L19.1981 14.6756C17.8162 13.455 16.95 11.6794 16.95 9.70125C16.95 9.15375 17.0156 8.62125 17.1412 8.11125L17.1319 8.15625L17.1356 8.15437Z" fill="white"></path></svg> 