<?xml version="1.0" encoding="UTF-8"?> <svg xmlns="http://www.w3.org/2000/svg" width="47" height="56" viewBox="0 0 47 56" fill="none"><path d="M44.3818 38.5337C43.7088 38.254 42.9272 38.0912 42.1072 38.0912C41.1849 38.0912 40.3122 38.2967 39.5322 38.6633L39.5689 38.6475L30.3333 42.7482C30.338 42.6739 30.3748 42.6107 30.3748 42.5364C30.3508 40.3699 28.5702 38.6238 26.3756 38.6238C26.2653 38.6238 26.1566 38.6285 26.0495 38.6364L26.0639 38.6348H20.017L12.4085 36.4304C12.3094 36.3988 12.196 36.3814 12.0777 36.3814H12.0713H8.60431V35.1852C8.60431 34.531 8.06724 34 7.40549 34H1.19882C0.53707 34 0 34.531 0 35.1852V54.4767C0 55.1309 0.53707 55.6618 1.19882 55.6618H7.40549C8.06724 55.6618 8.60431 55.1309 8.60431 54.4767V52.8885C11.5102 53.3373 14.1109 54.0611 16.5756 55.0487L16.3375 54.9634C18.1757 55.6207 20.2984 56 22.5106 56C22.5218 56 22.533 56 22.5441 56H22.5425C22.5505 56 22.5601 56 22.5697 56C25.1336 56 27.5776 55.4959 29.8074 54.581L29.6827 54.6268C31.6695 53.7529 33.3559 52.8316 34.9527 51.7839L34.8216 51.8645C35.3619 51.5343 35.899 51.204 36.4424 50.8864C39.0526 49.3583 41.1498 48.0167 43.0423 46.664C43.9678 46.0129 44.7734 45.3698 45.5406 44.684L45.5183 44.7045C46.1145 44.2273 46.5908 43.6268 46.9105 42.941L46.9233 42.9109C46.9728 42.7861 47 42.6423 47 42.4906C47 42.4005 46.9904 42.3136 46.9712 42.2299L46.9728 42.2378C46.7395 40.6307 45.766 39.289 44.4106 38.5447L44.385 38.5321L44.3818 38.5337ZM6.20667 53.2931H2.39763V36.3703H6.20667V53.2931ZM43.8303 43.0215C43.1718 43.6062 42.4557 44.1735 41.7076 44.6998L41.6325 44.7503C39.8055 46.0556 37.7675 47.3577 35.2164 48.8526C34.6602 49.1766 34.1119 49.5131 33.5589 49.8497C32.1938 50.7552 30.6226 51.6196 28.981 52.356L28.7732 52.4397C26.9318 53.1888 24.7931 53.6217 22.5521 53.6217C20.6292 53.6217 18.7815 53.301 17.06 52.7131L17.1782 52.7479C14.6927 51.7239 11.8027 50.9385 8.78972 50.5245L8.60271 50.504V38.7533H11.8987L19.5071 40.9578C19.6062 40.9894 19.7197 41.0068 19.838 41.0068H19.8444H26.0623C27.4737 41.0068 27.9756 41.8301 27.9756 42.538C27.9756 43.2459 27.4737 44.0692 26.0623 44.0692H15.1786C14.5169 44.0692 13.9798 44.6002 13.9798 45.2544C13.9798 45.9086 14.5169 46.4396 15.1786 46.4396H27.6159H27.6223C27.7982 46.4396 27.9644 46.4017 28.113 46.3321L28.1067 46.3353L40.5664 40.8045C41.0267 40.5959 41.5654 40.4742 42.1328 40.4742C42.5564 40.4742 42.964 40.5422 43.3444 40.667L43.3172 40.6591C43.9294 41.0226 44.369 41.6136 44.5192 42.312L44.5224 42.3294C44.3051 42.5807 44.0781 42.8066 43.8367 43.0168L43.8287 43.0231L43.8303 43.0215Z" fill="white"></path><path d="M30.3297 26.5936L34.3516 28.9892C35.1472 28.3707 35.883 27.679 36.5494 26.9233C38.1402 25.1054 39.3109 22.9593 39.978 20.6376L36.1538 18.4398C36.2787 17.7728 36.3448 17.0963 36.3516 16.4178C36.3496 15.7546 36.2907 15.0929 36.1758 14.4398L40 12.242C39.4068 10.1785 38.4136 8.25181 37.0769 6.57163C36.275 5.57571 35.3605 4.67595 34.3516 3.89031L30.3297 6.17602C29.5585 5.7052 28.7411 5.31487 27.8901 5.01119V0.615585C26.3048 0.199514 24.6719 -0.00736973 23.033 0.000200448C21.355 -0.00704048 19.6839 0.214787 18.0659 0.659541V5.05515C17.2129 5.37933 16.3893 5.7764 15.6044 6.24196L11.6923 3.84635C8.97847 5.9531 6.99499 8.85912 6.02198 12.154L9.8022 14.3518C9.68729 15.005 9.62846 15.6667 9.62637 16.3299C9.62846 16.993 9.68729 17.6548 9.8022 18.3079L6 20.5057C6.24981 21.3711 6.56576 22.2161 6.94505 23.0332C7.05495 23.2529 7.16484 23.4947 7.2967 23.7145V23.9343L7.53846 24.3518L7.8022 24.7694V24.9013C8.78963 26.3874 10.0062 27.7078 11.4066 28.8134L15.3846 26.4398C16.1695 26.9053 16.9931 27.3024 17.8462 27.6266V32.0222C19.4631 32.4744 21.1342 32.7036 22.8132 32.7035C24.4614 32.6984 26.1018 32.4767 27.6923 32.0442V27.6485C28.6068 27.3929 29.4911 27.0392 30.3297 26.5936ZM25.0769 29.9343C24.3844 30.022 23.6871 30.066 22.989 30.0661C22.2543 30.0697 21.5202 30.0257 20.7912 29.9343V26.22C18.7043 25.8544 16.7708 24.8838 15.2308 23.4288L11.8462 25.4507C10.8749 24.4026 10.0739 23.2086 9.47253 21.9123L12.9011 19.8683C12.0071 17.632 12.0071 15.1376 12.9011 12.9013L9.47253 10.8793C10.0951 9.56721 10.9264 8.36478 11.9341 7.31888L15.3626 9.36284C16.9233 7.91667 18.8702 6.95466 20.967 6.59361V2.83537C21.696 2.74393 22.4302 2.69988 23.1648 2.7035C23.8629 2.70361 24.5602 2.74765 25.2527 2.83537V6.61558C27.2364 7.0243 29.0646 7.9841 30.5275 9.38482L34.022 7.31888C35.016 8.37111 35.8391 9.57247 36.4615 10.8793L32.9451 12.9453C33.3788 14.0517 33.6024 15.2294 33.6044 16.4178C33.5969 17.5822 33.381 18.736 32.967 19.8244L36.3956 21.8683C35.7676 23.1653 34.9449 24.3586 33.956 25.4068L30.4835 23.3628C28.9645 24.8026 27.0658 25.7786 25.011 26.176L25.0769 29.9343Z" fill="white"></path><path d="M22.9891 10.9013C22.2415 10.8779 21.4966 11.002 20.797 11.2666C20.0974 11.5312 19.4567 11.9311 18.9118 12.4434C18.3668 12.9557 17.9281 13.5704 17.6208 14.2524C17.3136 14.9343 17.1437 15.6702 17.121 16.4178C17.1437 17.1654 17.3136 17.9013 17.6208 18.5832C17.9281 19.2652 18.3668 19.8799 18.9118 20.3922C19.4567 20.9045 20.0974 21.3044 20.797 21.569C21.4966 21.8336 22.2415 21.9577 22.9891 21.9343C24.5011 21.9817 25.9703 21.4276 27.0744 20.3935C28.1786 19.3594 28.8276 17.9297 28.8792 16.4178C28.8276 14.9059 28.1786 13.4762 27.0744 12.4421C25.9703 11.408 24.5011 10.8539 22.9891 10.9013ZM23.1649 19.0552C22.3949 19.1169 21.6312 18.8759 21.0361 18.3834C20.441 17.8909 20.0615 17.1857 19.9781 16.4178C19.9918 16.0183 20.0861 15.6257 20.2553 15.2635C20.4245 14.9013 20.6651 14.5771 20.9628 14.3102C21.2604 14.0434 21.6089 13.8394 21.9873 13.7106C22.3658 13.5818 22.7663 13.5308 23.1649 13.5607C23.9482 13.5369 24.7091 13.824 25.2815 14.3593C25.8539 14.8946 26.1912 15.6346 26.2199 16.4178C26.1372 17.1617 25.7764 17.8468 25.2099 18.3359C24.6434 18.825 23.9129 19.0819 23.1649 19.0552Z" fill="white"></path></svg> 