<?xml version="1.0" encoding="UTF-8"?> <svg xmlns="http://www.w3.org/2000/svg" width="60" height="60" viewBox="0 0 60 60" fill="none"><g clip-path="url(#clip0_179_645)"><path d="M21.6 0C16.2844 0 12 4.28438 12 9.6C12 14.9156 16.2844 19.2 21.6 19.2C25.1579 19.2 28.2282 17.2641 29.8875 14.4H44.4001C44.7188 14.4094 45.0329 14.2875 45.2626 14.0625L47.6626 11.6625C47.8876 11.4328 48.0094 11.1188 48.0001 10.8V8.4C48.0094 8.08125 47.8876 7.76719 47.6626 7.5375L45.2626 5.1375C45.0329 4.9125 44.7188 4.79063 44.4001 4.8H42.0001C41.6813 4.79063 41.3672 4.9125 41.1376 5.1375L40.2001 6.075L39.2626 5.1375C39.0329 4.9125 38.7188 4.79063 38.4001 4.8H36.0001C35.761 4.79531 35.5266 4.86094 35.3251 4.9875L34.2 5.7375L33.075 4.9875C32.8735 4.86094 32.6391 4.79531 32.4 4.8H29.8875C28.2282 1.93594 25.1579 0 21.6 0ZM21.6 2.4C25.6454 2.4 28.8 5.55469 28.8 9.6C28.8 13.6453 25.6454 16.8 21.6 16.8C17.5547 16.8 14.4 13.6453 14.4 9.6C14.4 5.55469 17.5547 2.4 21.6 2.4ZM19.2 7.2C17.8735 7.2 16.8 8.27344 16.8 9.6C16.8 10.9266 17.8735 12 19.2 12C20.5266 12 21.6 10.9266 21.6 9.6C21.6 8.27344 20.5266 7.2 19.2 7.2ZM30.9 7.2H32.025L33.525 8.2125C33.9329 8.48906 34.4672 8.48906 34.8751 8.2125L36.3751 7.2H37.8751L39.3376 8.6625C39.5626 8.89688 39.8766 9.02813 40.2001 9.02813C40.5235 9.02813 40.8376 8.89688 41.0626 8.6625L42.5251 7.2H43.8751L45.6001 8.925V10.275L43.8751 12H30.9C31.0969 11.2313 31.2 10.4297 31.2 9.6C31.2 8.77031 31.0969 7.96875 30.9 7.2ZM18.825 21.6C16.425 21.6 14.2313 23.0719 13.3125 25.3125C13.3079 25.3313 13.2797 25.3313 13.275 25.35L9.75005 33.6H8.40005C6.42661 33.6 4.80005 35.2266 4.80005 37.2C4.80005 39.1734 6.42661 40.8 8.40005 40.8V56.4C8.40005 58.3734 10.0266 60 12 60H15.6C17.5735 60 19.2 58.3734 19.2 56.4V55.2H40.8001V56.4C40.8001 58.3734 42.4266 60 44.4001 60H48.0001C49.9735 60 51.6001 58.3734 51.6001 56.4V40.8C53.5735 40.8 55.2001 39.1734 55.2001 37.2C55.2001 35.2266 53.5735 33.6 51.6001 33.6H50.2501L46.7251 25.35C46.7204 25.3313 46.6922 25.3313 46.6876 25.3125C45.7688 23.0719 43.5751 21.6 41.1751 21.6H18.825ZM18.825 24H41.1751C42.5954 24 43.9407 24.9188 44.4751 26.25L44.5126 26.2875L47.8876 34.2L46.7251 34.9875V35.025C45.7313 35.7188 44.6672 36 43.4251 36H16.575C15.3329 36 14.2688 35.7188 13.275 35.025V34.9875L12.1125 34.2L15.4875 26.2875L15.525 26.25C16.0594 24.9188 17.4047 24 18.825 24ZM8.40005 36H10.425L11.925 37.0125V36.975H11.9625C13.3641 37.9453 14.9485 38.4 16.575 38.4H43.4251C45.0516 38.4 46.636 37.9453 48.0376 36.975C48.0469 36.9703 48.0657 36.9797 48.0751 36.975V37.0125L49.5751 36H51.6001C52.2657 36 52.8001 36.5344 52.8001 37.2C52.8001 37.8656 52.2657 38.4 51.6001 38.4H49.2001V52.8H10.8V38.4H8.40005C7.73442 38.4 7.20005 37.8656 7.20005 37.2C7.20005 36.5344 7.73442 36 8.40005 36ZM17.4 42C15.0938 42 13.2 43.8938 13.2 46.2C13.2 48.5063 15.0938 50.4 17.4 50.4C19.7063 50.4 21.6 48.5063 21.6 46.2C21.6 43.8938 19.7063 42 17.4 42ZM42.6001 42C40.2938 42 38.4001 43.8938 38.4001 46.2C38.4001 48.5063 40.2938 50.4 42.6001 50.4C44.9063 50.4 46.8001 48.5063 46.8001 46.2C46.8001 43.8938 44.9063 42 42.6001 42ZM17.4 44.4C18.45 44.4 19.2 45.15 19.2 46.2C19.2 47.25 18.45 48 17.4 48C16.35 48 15.6 47.25 15.6 46.2C15.6 45.15 16.35 44.4 17.4 44.4ZM42.6001 44.4C43.6501 44.4 44.4001 45.15 44.4001 46.2C44.4001 47.25 43.6501 48 42.6001 48C41.5501 48 40.8001 47.25 40.8001 46.2C40.8001 45.15 41.5501 44.4 42.6001 44.4ZM10.8 55.2H16.8V56.4C16.8 57.0656 16.2657 57.6 15.6 57.6H12C11.3344 57.6 10.8 57.0656 10.8 56.4V55.2ZM43.2001 55.2H49.2001V56.4C49.2001 57.0656 48.6657 57.6 48.0001 57.6H44.4001C43.7344 57.6 43.2001 57.0656 43.2001 56.4V55.2Z" fill="white"></path></g><defs><clipPath id="clip0_179_645"><rect width="60" height="60" fill="white"></rect></clipPath></defs></svg> 