<?xml version="1.0" encoding="UTF-8"?> <svg xmlns="http://www.w3.org/2000/svg" width="40" height="52" viewBox="0 0 40 52" fill="none"><path d="M8.26678 29V16.0772H4L20.0001 1L36 16.0767H31.7334V28.9998H23.2001V19.3077H16.8001V28.9998L8.26678 29Z" stroke="white" stroke-width="1.75" stroke-miterlimit="5" stroke-linecap="round" stroke-linejoin="round"></path><path d="M37.7717 36.9155C37.199 36.6739 36.5338 36.5333 35.8359 36.5333C35.051 36.5333 34.3083 36.7107 33.6444 37.0274L33.6757 37.0137L25.8155 40.5552C25.8196 40.4911 25.8509 40.4365 25.8509 40.3724C25.8305 38.5013 24.3151 36.9932 22.4473 36.9932C22.3534 36.9932 22.2609 36.9973 22.1698 37.0042L22.182 37.0028H17.0358L10.5605 35.099C10.4761 35.0717 10.3795 35.0567 10.2789 35.0567H10.2734H7.32281V34.0236C7.32281 33.4586 6.86573 33 6.30254 33H1.02027C0.457081 33 0 33.4586 0 34.0236V50.6844C0 51.2494 0.457081 51.7079 1.02027 51.7079H6.30254C6.86573 51.7079 7.32281 51.2494 7.32281 50.6844V49.3128C9.79595 49.7004 12.0093 50.3255 14.1069 51.1784L13.9042 51.1047C15.4686 51.6725 17.2752 52 19.1579 52C19.1675 52 19.177 52 19.1865 52H19.1851C19.1919 52 19.2001 52 19.2083 52C21.3903 52 23.4703 51.5646 25.368 50.7745L25.2619 50.814C26.9528 50.0593 28.388 49.2637 29.747 48.3589L29.6354 48.4285C30.0952 48.1432 30.5523 47.858 31.0148 47.5837C33.2363 46.264 35.0211 45.1053 36.6318 43.9371C37.4194 43.3748 38.105 42.8194 38.758 42.2271L38.7389 42.2448C39.2464 41.8326 39.6517 41.314 39.9238 40.7217L39.9347 40.6958C39.9769 40.588 40 40.4638 40 40.3328C40 40.255 39.9918 40.1799 39.9755 40.1076L39.9769 40.1144C39.7783 38.7265 38.9498 37.5678 37.7962 36.925L37.7745 36.9141L37.7717 36.9155ZM5.28228 49.6622H2.04054V35.0471H5.28228V49.6622ZM37.3024 40.7913C36.7419 41.2963 36.1325 41.7862 35.4959 42.2407L35.4319 42.2844C33.877 43.4117 32.1426 44.5362 29.9714 45.8273C29.498 46.107 29.0314 46.3977 28.5607 46.6884C27.399 47.4704 26.0618 48.2169 24.6647 48.8529L24.4878 48.9252C22.9207 49.5721 21.1005 49.9461 19.1933 49.9461C17.5568 49.9461 15.9842 49.669 14.5191 49.1613L14.6198 49.1914C12.5044 48.307 10.0449 47.6287 7.48062 47.2712L7.32145 47.2534V37.1052H10.1265L16.6018 39.009C16.6862 39.0363 16.7828 39.0513 16.8834 39.0513H16.8889H22.1807C23.3819 39.0513 23.809 39.7623 23.809 40.3737C23.809 40.9851 23.3819 41.6962 22.1807 41.6962H12.918C12.3548 41.6962 11.8977 42.1547 11.8977 42.7197C11.8977 43.2847 12.3548 43.7433 12.918 43.7433H23.5029H23.5084C23.658 43.7433 23.7995 43.7105 23.926 43.6505L23.9206 43.6532L34.5246 38.8766C34.9163 38.6965 35.3748 38.5914 35.8577 38.5914C36.2182 38.5914 36.5651 38.6501 36.8889 38.7579L36.8657 38.751C37.3868 39.0649 37.7609 39.5753 37.8887 40.1786L37.8914 40.1936C37.7064 40.4106 37.5133 40.6057 37.3079 40.7872L37.301 40.7927L37.3024 40.7913Z" fill="white"></path></svg> 