<?xml version="1.0" encoding="UTF-8"?> <svg xmlns="http://www.w3.org/2000/svg" width="47" height="59" viewBox="0 0 47 59" fill="none"><path d="M17.7425 18.8714C17.7295 18.855 17.7157 18.839 17.7006 18.8238C17.6854 18.8086 17.6694 18.7949 17.653 18.7819C16.4046 17.5559 14.6947 16.7985 12.811 16.7985C10.9272 16.7985 9.21743 17.5559 7.96906 18.7818C7.95262 18.7948 7.93662 18.8086 7.92149 18.8238C7.90636 18.8389 7.89253 18.8549 7.87956 18.8713C6.65357 20.1198 5.89612 21.8296 5.89612 23.7133C5.89612 25.5971 6.65357 27.3069 7.87949 28.5553C7.89245 28.5717 7.90628 28.5877 7.92142 28.6028C7.93655 28.618 7.95262 28.6318 7.96899 28.6448C9.21743 29.8708 10.9272 30.6282 12.811 30.6282C14.6947 30.6282 16.4046 29.8708 17.6529 28.6448C17.6694 28.6318 17.6854 28.618 17.7005 28.6028C17.7156 28.5877 17.7295 28.5716 17.7424 28.5553C18.9684 27.3069 19.7259 25.5971 19.7259 23.7133C19.7259 21.8296 18.9684 20.1198 17.7425 18.8714ZM18.0243 24.2564H18.6135C18.5021 25.4565 18.0261 26.5522 17.2966 27.4309L16.8814 27.0157C16.6693 26.8036 16.3254 26.8036 16.1134 27.0157C15.9013 27.2278 15.9013 27.5716 16.1134 27.7837L16.5287 28.199C15.6499 28.9285 14.5541 29.4045 13.3541 29.516V28.9266C13.3541 28.6267 13.111 28.3836 12.8111 28.3836C12.5112 28.3836 12.268 28.6267 12.268 28.9266V29.5159C11.0679 29.4045 9.9722 28.9285 9.09347 28.1989L9.50872 27.7836C9.7208 27.5715 9.7208 27.2277 9.50872 27.0156C9.29672 26.8035 8.95285 26.8035 8.74077 27.0156L8.32552 27.4309C7.59587 26.5522 7.11987 25.4565 7.00844 24.2564H7.59768C7.89759 24.2564 8.14074 24.0132 8.14074 23.7133C8.14074 23.4134 7.89759 23.1703 7.59768 23.1703H7.00844C7.11987 21.9702 7.59587 20.8745 8.32537 19.9957L8.74063 20.411C8.84663 20.517 8.98565 20.5701 9.1246 20.5701C9.26355 20.5701 9.40257 20.5171 9.50858 20.411C9.72066 20.1989 9.72066 19.8551 9.50858 19.643L9.09332 19.2277C9.97206 18.4981 11.0679 18.0221 12.2679 17.9107V18.5C12.2679 18.7999 12.511 19.043 12.8109 19.043C13.1108 19.043 13.354 18.7999 13.354 18.5V17.9107C14.554 18.0221 15.6498 18.4981 16.5285 19.2277L16.1133 19.643C15.9012 19.8551 15.9012 20.1989 16.1133 20.411C16.2193 20.5171 16.3583 20.5701 16.4972 20.5701C16.6362 20.5701 16.7752 20.5171 16.8812 20.411L17.2965 19.9957C18.026 20.8745 18.502 21.9703 18.6134 23.1703H18.0243C17.7244 23.1703 17.4812 23.4134 17.4812 23.7133C17.4812 24.0132 17.7244 24.2564 18.0243 24.2564Z" fill="white"></path><path d="M15.2506 22.0595C14.9756 22.1793 14.8499 22.4993 14.9697 22.7743C15.0989 23.0707 15.1644 23.3867 15.1644 23.7133C15.1644 25.0109 14.1087 26.0666 12.8112 26.0666C11.5136 26.0666 10.4579 25.0109 10.4579 23.7133C10.4579 22.4157 11.5136 21.3601 12.8112 21.3601C13.1377 21.3601 13.4536 21.4255 13.75 21.5547C14.025 21.6745 14.345 21.5487 14.4648 21.2737C14.5846 20.9987 14.4588 20.6787 14.1839 20.559C13.7497 20.3699 13.2879 20.274 12.8112 20.274C10.9147 20.274 9.37183 21.8168 9.37183 23.7133C9.37183 25.6098 10.9147 27.1527 12.8112 27.1527C14.7076 27.1527 16.2505 25.6098 16.2505 23.7133C16.2505 23.2364 16.1546 22.7745 15.9654 22.3403C15.8455 22.0654 15.5256 21.9396 15.2506 22.0595Z" fill="white"></path><path d="M12.8112 22.591C12.1923 22.591 11.6888 23.0944 11.6888 23.7133C11.6888 24.3322 12.1923 24.8356 12.8112 24.8356C13.43 24.8356 13.9335 24.3322 13.9335 23.7133C13.9335 23.0944 13.43 22.591 12.8112 22.591ZM12.8112 23.7495C12.7912 23.7495 12.7749 23.7333 12.7749 23.7133C12.7749 23.6933 12.7912 23.6771 12.8112 23.6771C12.8311 23.6771 12.8474 23.6933 12.8474 23.7133C12.8474 23.7333 12.8311 23.7495 12.8112 23.7495Z" fill="white"></path><path d="M35.9814 28.3836C35.6814 28.3836 35.4383 28.6267 35.4383 28.9266C35.4383 29.5854 34.9024 30.1214 34.2436 30.1214C33.5848 30.1214 33.0489 29.5854 33.0489 28.9266C33.0489 28.2679 33.5848 27.7319 34.2436 27.7319C34.5435 27.7319 34.7866 27.4888 34.7866 27.1889C34.7866 26.889 34.5435 26.6458 34.2436 26.6458C32.986 26.6458 31.9628 27.669 31.9628 28.9266C31.9628 30.1843 32.986 31.2075 34.2436 31.2075C35.5012 31.2075 36.5244 30.1843 36.5244 28.9266C36.5244 28.6267 36.2813 28.3836 35.9814 28.3836Z" fill="white"></path><path d="M38.8415 22.1011V18.0674C38.8415 16.0592 37.2476 14.3464 35.1285 14.0827L31.2742 13.6421L29.009 3.67524C28.9174 3.27251 29.0371 2.85769 29.3292 2.56567L30.4806 1.41411C30.6927 1.20203 30.6927 0.858168 30.4806 0.646088C30.2686 0.434008 29.9247 0.434008 29.7127 0.646088L28.5612 1.79758C28.0037 2.35511 27.7752 3.14695 27.9499 3.91585L30.1306 13.5113L28.8953 13.3701L26.1035 1.08611H26.1341C26.434 1.08611 26.6771 0.842963 26.6771 0.543053C26.6771 0.243143 26.434 0 26.1341 0H9.33909C9.33837 0 9.33764 0 9.33692 0H8.75636C8.45645 0 8.21331 0.243143 8.21331 0.543053C8.21331 0.812769 8.41018 1.036 8.66795 1.07829L6.4872 11.4371C6.4767 11.4869 6.47395 11.5366 6.4772 11.5851H4.12231C3.8224 11.5851 3.57926 11.8283 3.57926 12.1282C3.57926 12.4281 3.8224 12.6712 4.12231 12.6712H5.31703V17.3415C5.31703 17.3565 5.31804 17.3714 5.31927 17.3862C3.8733 19.0956 3 21.3043 3 23.7133C3 29.1232 7.40126 33.5245 12.8112 33.5245C17.0137 33.5245 20.6071 30.8681 22.0019 27.1465C22.0273 27.1501 22.053 27.1526 22.0793 27.1526H23.8532V27.1888C23.8532 27.8077 24.3567 28.3112 24.9755 28.3112H29.6881C29.6611 28.5127 29.6458 28.7178 29.6458 28.9266C29.6458 31.4619 31.7084 33.5245 34.2436 33.5245C36.7789 33.5245 38.8415 31.4619 38.8415 28.9266C38.8415 28.6928 38.8237 28.4631 38.7899 28.2385C39.4892 28.0271 40 27.377 40 26.6096V23.7133C40 22.9649 39.5141 22.3283 38.8415 22.1011ZM37.7554 19.6947H37.1399C37.1213 19.6947 37.1037 19.6771 37.1037 19.6585V19.0793C37.1037 19.0606 37.1213 19.0431 37.1399 19.0431H37.7554V19.6947ZM37.7526 17.9569H37.1399C36.5211 17.9569 36.0176 18.4604 36.0176 19.0793V19.6585C36.0176 20.2774 36.5211 20.7808 37.1399 20.7808H37.7554V22.0117H24.8194C24.3908 18.9722 22.8316 16.2911 20.5816 14.409H28.4202L34.9998 15.1612C36.531 15.3517 37.6946 16.5436 37.7526 17.9569ZM12.8112 11.5851H11.6164L12.5021 4.94265C12.6191 4.065 13.3751 3.40313 14.2605 3.40313H16.9022V12.2959C15.6234 11.8363 14.2461 11.5851 12.8112 11.5851ZM17.9883 12.7074V3.40313H25.5163L27.7707 13.3229H19.183C19.1471 13.3229 19.112 13.3266 19.0781 13.3332C18.7255 13.1196 18.361 12.9239 17.9863 12.7463C17.9872 12.7334 17.9883 12.7205 17.9883 12.7074ZM9.77629 1.08611H25.0131C25.0097 1.13737 25.0133 1.19001 25.0253 1.24265L25.2694 2.31703H14.2605C12.833 2.31703 11.6142 3.38409 11.4256 4.79914L10.5352 11.4772C10.5303 11.5137 10.5293 11.5498 10.5316 11.5851H7.56592L9.77629 1.08611ZM12.8112 32.4384C8.00014 32.4384 4.08611 28.5243 4.08611 23.7133C4.08611 18.9023 8.00014 14.9883 12.8112 14.9883C17.6222 14.9883 21.5362 18.9023 21.5362 23.7133C21.5362 28.5243 17.6222 32.4384 12.8112 32.4384ZM22.3364 26.0665C22.5227 25.3123 22.6223 24.5243 22.6223 23.7133C22.6223 18.3034 18.221 13.9022 12.8112 13.9022C10.3641 13.9022 8.12345 14.8027 6.40313 16.2898V12.6712H12.8112C18.8998 12.6712 23.8532 17.6247 23.8532 23.7133V26.0665H22.3364ZM34.2436 32.4384C32.3073 32.4384 30.7319 30.863 30.7319 28.9266C30.7319 26.9902 32.3073 25.4149 34.2436 25.4149C36.18 25.4149 37.7554 26.9902 37.7554 28.9266C37.7554 30.863 36.18 32.4384 34.2436 32.4384ZM38.9139 26.6096C38.9139 26.8783 38.7406 27.1067 38.5001 27.1904C37.8135 25.5136 36.1647 24.3288 34.2436 24.3288C32.3094 24.3288 30.6515 25.5299 29.9736 27.225H24.9755C24.9556 27.225 24.9393 27.2088 24.9393 27.1888V23.7133C24.9393 23.5069 24.934 23.3017 24.9238 23.0978H38.2984C38.6378 23.0978 38.9139 23.3739 38.9139 23.7133V26.6096Z" fill="white"></path><path d="M44.3818 41.5337C43.7088 41.254 42.9272 41.0912 42.1072 41.0912C41.1849 41.0912 40.3122 41.2967 39.5322 41.6633L39.5689 41.6475L30.3333 45.7482C30.338 45.6739 30.3748 45.6107 30.3748 45.5364C30.3508 43.3699 28.5702 41.6238 26.3756 41.6238C26.2653 41.6238 26.1566 41.6285 26.0495 41.6364L26.0639 41.6348H20.017L12.4086 39.4304C12.3094 39.3988 12.196 39.3814 12.0777 39.3814H12.0713H8.60431V38.1852C8.60431 37.531 8.06724 37 7.40549 37H1.19882C0.53707 37 0 37.531 0 38.1852V57.4767C0 58.1309 0.53707 58.6618 1.19882 58.6618H7.40549C8.06724 58.6618 8.60431 58.1309 8.60431 57.4767V55.8885C11.5102 56.3373 14.1109 57.0611 16.5756 58.0487L16.3375 57.9634C18.1757 58.6207 20.2984 59 22.5106 59C22.5218 59 22.533 59 22.5441 59H22.5425C22.5505 59 22.5601 59 22.5697 59C25.1336 59 27.5776 58.4959 29.8074 57.581L29.6827 57.6268C31.6695 56.7529 33.3559 55.8316 34.9527 54.7839L34.8216 54.8645C35.3619 54.5343 35.899 54.204 36.4424 53.8864C39.0526 52.3583 41.1498 51.0167 43.0423 49.664C43.9678 49.0129 44.7734 48.3698 45.5406 47.684L45.5183 47.7045C46.1145 47.2273 46.5908 46.6268 46.9105 45.941L46.9233 45.9109C46.9728 45.7861 47 45.6423 47 45.4906C47 45.4005 46.9904 45.3136 46.9712 45.2299L46.9728 45.2378C46.7395 43.6307 45.766 42.289 44.4106 41.5447L44.385 41.5321L44.3818 41.5337ZM6.20667 56.2931H2.39763V39.3703H6.20667V56.2931ZM43.8303 46.0215C43.1718 46.6062 42.4557 47.1735 41.7076 47.6998L41.6325 47.7503C39.8055 49.0556 37.7675 50.3577 35.2164 51.8526C34.6602 52.1766 34.1119 52.5131 33.5589 52.8497C32.1938 53.7552 30.6226 54.6196 28.981 55.356L28.7732 55.4397C26.9318 56.1888 24.7931 56.6217 22.5521 56.6217C20.6292 56.6217 18.7815 56.301 17.06 55.7131L17.1782 55.7479C14.6927 54.7239 11.8027 53.9385 8.78972 53.5245L8.60271 53.504V41.7533H11.8987L19.5071 43.9578C19.6062 43.9894 19.7197 44.0068 19.838 44.0068H19.8444H26.0623C27.4737 44.0068 27.9756 44.8301 27.9756 45.538C27.9756 46.2459 27.4737 47.0692 26.0623 47.0692H15.1786C14.5169 47.0692 13.9798 47.6002 13.9798 48.2544C13.9798 48.9086 14.5169 49.4396 15.1786 49.4396H27.6159H27.6223C27.7982 49.4396 27.9644 49.4017 28.113 49.3321L28.1067 49.3353L40.5664 43.8045C41.0267 43.5959 41.5654 43.4742 42.1328 43.4742C42.5564 43.4742 42.964 43.5422 43.3444 43.667L43.3172 43.6591C43.9294 44.0226 44.369 44.6136 44.5192 45.312L44.5224 45.3294C44.3051 45.5807 44.0781 45.8066 43.8367 46.0168L43.8287 46.0231L43.8303 46.0215Z" fill="white"></path></svg> 