<?xml version="1.0" encoding="UTF-8"?> <svg xmlns="http://www.w3.org/2000/svg" width="60" height="59" viewBox="0 0 60 59" fill="none"><path d="M47.5209 36.04L43.5276 38.0367C43.1283 38.2364 42.9286 38.5359 42.9286 38.9352V45.9235C42.9286 46.5225 43.3279 46.9218 43.9269 46.9218C44.5259 46.9218 44.9252 46.5225 44.9252 45.9235V39.5342L48.4194 37.7372C48.8187 37.5375 49.0184 36.9385 48.8187 36.4394C48.619 36.04 48.02 35.8403 47.5209 36.04Z" fill="white"></path><path d="M60 16.872C60 14.1765 57.8037 11.9802 55.1082 11.9802H53.9102V10.2829C53.9102 9.08494 52.812 7.98673 51.5142 7.98673H48.2197C47.0217 7.98673 45.9234 9.08494 45.9234 10.2829V11.9802H43.9267V7.98673H41.9301V6.88852C41.9301 3.09481 38.8353 0 35.0416 0H24.8586C21.0649 0 17.9701 3.09481 17.9701 6.88852V7.98673H15.9733V11.98H13.9766V10.2829C13.9766 9.08494 12.8784 7.98673 11.5806 7.98673H8.28612C7.08811 7.98673 5.9899 9.08494 5.9899 10.2829V11.9802H4.89169C2.1963 11.98 0 14.1765 0 16.872V50.0168C0 52.7123 2.1963 54.9086 4.89181 54.9086H5.99002H13.9768H42.3195C42.9032 55.5544 43.539 56.1557 44.2264 56.7056C45.5242 57.7039 46.8221 58.2031 48.1199 58.7023L48.5192 58.8021C48.7189 58.9019 48.8187 58.9019 48.9185 58.9019C49.0183 58.9019 49.1182 58.9019 49.3178 58.8021L49.7171 58.7023C51.0149 58.2031 52.4126 57.704 53.6106 56.7056C57.7038 53.5109 59.9999 48.6191 59.9999 42.9286V35.1415V16.872H60ZM55.1082 13.9768C56.7055 13.9768 58.0034 15.2746 58.0034 16.872V32.7868C57.2247 32.6531 56.4914 32.48 55.7996 32.2759C55.1354 32.0623 54.506 31.8214 53.9102 31.5612V13.9768H55.1082ZM47.9202 13.9768H51.9135V30.5675C51.0755 30.1001 50.3125 29.615 49.6173 29.1515L49.0183 28.7522L48.9683 28.7854L48.9183 28.7522L48.3193 29.0517C48.2195 29.1515 48.0198 29.2514 47.92 29.3512V13.9768H47.9202ZM47.9202 10.2829C47.9202 10.1832 48.1199 9.98345 48.3195 9.98345H51.614C51.7138 9.98345 51.9135 10.1832 51.9135 10.2829V11.9802H47.9202V10.2829ZM41.9301 11.98H35.9401V9.98345H41.9301V11.98ZM35.9401 7.98673H33.9434V11.98H25.9567V7.98673H23.9601V6.38943C23.9601 6.18973 24.3594 6.08993 24.3594 5.99014C24.3594 5.89034 24.5591 5.79043 24.8586 5.89034C28.1531 7.28805 31.8469 7.28805 35.2413 5.89034C35.441 5.79055 35.6406 5.99014 35.7405 5.99014C35.7405 5.99014 35.9402 6.18984 35.9402 6.38943L35.9401 7.98673ZM19.9668 6.88852C19.9668 4.19301 22.1631 1.99671 24.8586 1.99671H35.0416C37.7371 1.99671 39.9334 4.19301 39.9334 6.88852V7.98673H37.9367V6.38943C37.9367 5.59072 37.5374 4.79213 36.7387 4.29293C36.0399 3.89363 35.1414 3.79372 34.3427 4.09322C31.4475 5.29122 28.3527 5.29122 25.4575 4.09322C24.6588 3.69392 23.7603 3.79372 23.0615 4.29293C22.3627 4.69222 21.9633 5.49093 21.9633 6.38943V7.98673H19.9665V6.88852H19.9668ZM17.9701 9.98345H23.9601V11.9802H17.9701V9.98345ZM7.98673 10.2829C7.98673 10.1832 8.18644 9.98345 8.28623 9.98345H11.6805C11.7803 9.98345 11.98 10.1832 11.98 10.2829V11.9802H7.98673V10.2829ZM4.89181 52.9119C3.29451 52.9119 1.9966 51.6141 1.9966 50.1166V16.872C1.9966 15.2747 3.29439 13.9768 4.89181 13.9768H5.99002V52.9119H4.89181ZM7.98673 52.9119V13.9768H11.98V52.9119H7.98673ZM13.9768 52.9119V13.9768H15.9735H25.9568H33.9435H43.9269H45.9236V30.6797C44.2627 31.5825 42.3265 32.3741 39.9296 32.7871C39.9188 32.1554 39.8442 31.5407 39.7116 30.9485H41.9301V18.9685H27.9534V24.4664C24.4513 25.6902 21.9634 29.0059 21.9634 32.9452C21.9634 33.2831 21.9831 33.6158 22.0188 33.9435H16.9716V45.9236H30.9484V41.9303C33.783 41.9303 36.2945 40.6416 37.9367 38.6147V42.9287C37.9367 43.1428 37.941 43.3553 37.9475 43.5671C37.9489 43.6127 37.951 43.6581 37.9526 43.7037C37.9596 43.8933 37.9692 44.082 37.9815 44.2695C37.9827 44.2875 37.9837 44.3057 37.985 44.3237C38.2025 47.5369 39.1718 50.4577 40.7781 52.912H13.9768V52.9119ZM28.9518 41.7306V43.9269H18.9685V35.9401H22.4626C22.8489 37.0603 23.4602 38.0752 24.237 38.9399C24.2688 38.9756 24.3009 39.0112 24.3333 39.0464C24.3733 39.0896 24.4142 39.1318 24.4551 39.1743C24.5496 39.2729 24.6464 39.3692 24.7453 39.4634C24.7483 39.4662 24.7512 39.469 24.7541 39.4718C25.1596 39.8566 25.6011 40.2032 26.0738 40.5069C26.0802 40.511 26.0867 40.5151 26.0931 40.5192C26.1905 40.5815 26.2891 40.6422 26.389 40.7008C26.4634 40.7448 26.5385 40.7878 26.6142 40.8297C26.6399 40.8439 26.6658 40.8578 26.6917 40.8717C27.3977 41.2531 28.1568 41.545 28.9518 41.7306ZM23.9601 32.9451C23.9601 29.9963 25.736 27.5069 28.2889 26.4719L29.1514 26.2563C32.7454 25.258 36.0399 27.1548 37.3377 30.3495L37.6372 30.9485H37.6518C37.8363 31.58 37.9367 32.2495 37.9367 32.9452C37.9367 36.8387 34.8419 39.9335 30.9484 39.9335C27.0549 39.9335 23.9601 36.8386 23.9601 32.9451ZM32.3686 24.0709C31.9062 23.9986 31.4322 23.9601 30.9484 23.9601C30.6105 23.9601 30.2778 23.9799 29.9501 24.0155V20.9651H39.9334V28.9518H39.0349C37.6991 26.28 35.2495 24.4752 32.3686 24.0709ZM57.9035 42.9286C57.9035 47.9203 55.9068 52.3129 52.3128 55.1083C51.3145 55.907 50.1165 56.3063 48.9185 56.8055C47.6207 56.3063 46.5225 55.907 45.5242 55.1083C45.1004 54.7787 44.6997 54.4261 44.321 54.0537L43.6274 53.2114C41.4757 50.7908 40.2104 47.6453 39.9745 44.137C39.9707 44.0811 39.967 44.0251 39.9638 43.969C39.9598 43.8989 39.9562 43.8287 39.9531 43.7584C39.9493 43.6754 39.9463 43.5923 39.9436 43.509C39.942 43.4558 39.94 43.403 39.9387 43.3497C39.9355 43.2098 39.9334 43.0694 39.9334 42.9284V34.8419C42.2883 34.4192 44.2395 33.7036 45.9234 32.8734V32.9451L47.421 32.1464C47.9202 31.8469 48.4193 31.5474 48.9185 31.2479C49.9168 31.8469 51.1148 32.6456 52.5125 33.2446L53.9102 33.8436V33.787C55.105 34.2423 56.4247 34.6144 57.9035 34.8419V42.9286Z" fill="white"></path><path d="M30.9484 28.9518C28.7521 28.9518 26.9551 30.7488 26.9551 32.9451C26.9551 35.1414 28.7521 36.9384 30.9484 36.9384C33.1447 36.9384 34.9417 35.1414 34.9417 32.9451C34.9418 30.7488 33.1448 28.9518 30.9484 28.9518ZM30.9484 34.9418C29.8502 34.9418 28.9517 34.0433 28.9517 32.9451C28.9517 31.8469 29.8502 30.9484 30.9484 30.9484C32.0466 30.9484 32.9451 31.8469 32.9451 32.9451C32.9451 34.0433 32.0466 34.9418 30.9484 34.9418Z" fill="white"></path></svg> 