<?xml version="1.0" encoding="UTF-8"?> <svg xmlns="http://www.w3.org/2000/svg" width="116" height="116" viewBox="0 0 116 116" fill="none"><path d="M45.1268 54.674C45.2153 54.674 45.3055 54.6722 45.3958 54.6678C46.9924 54.6015 48.4526 53.9572 49.4014 52.9005C50.0704 52.1554 50.0086 51.0091 49.2633 50.341C48.5182 49.6746 47.3729 49.7338 46.7039 50.4791C46.4119 50.8039 45.8525 51.0207 45.2435 51.0465C44.5231 51.0827 43.8187 50.8306 43.3285 50.3711C42.6027 49.6853 41.454 49.7188 40.7672 50.4463C40.0805 51.1748 40.114 52.3217 40.8433 53.0085C41.9743 54.075 43.5213 54.674 45.1268 54.674Z" fill="white"></path><path d="M52.6634 41.4565C53.1536 40.9963 53.8634 40.7495 54.5803 40.7812C55.1891 40.8069 55.7468 41.0237 56.0388 41.3476C56.3964 41.7467 56.8919 41.9502 57.3874 41.9502C57.8194 41.9502 58.2513 41.7971 58.5982 41.4873C59.3433 40.8183 59.4053 39.673 58.7363 38.9279C57.7893 37.8703 56.3291 37.226 54.7307 37.1587C53.0492 37.1065 51.373 37.6932 50.1782 38.819C49.4491 39.5057 49.4153 40.6527 50.1021 41.3811C50.787 42.1096 51.9376 42.1424 52.6634 41.4565Z" fill="white"></path><path d="M36.5857 41.3484C36.9433 41.7476 37.4389 41.9502 37.9344 41.9502C38.3663 41.9502 38.7999 41.797 39.1452 41.4864C39.8903 40.8174 39.9523 39.6712 39.2833 38.9269C38.3328 37.8684 36.869 37.2241 35.2671 37.1587C33.5502 37.0967 31.9111 37.6959 30.7217 38.8216C29.9942 39.5093 29.9641 40.6563 30.6509 41.3838C31.3429 42.1122 32.4898 42.1414 33.2139 41.4537C33.6971 40.9963 34.3574 40.744 35.1203 40.7811C35.7326 40.806 36.2937 41.0236 36.5857 41.3484Z" fill="white"></path><path d="M82.0689 48.2019H81.9998C80.998 48.2019 80.2227 49.0135 80.2227 50.0144C80.2227 51.0153 81.0669 51.8269 82.0689 51.8269C83.0708 51.8269 83.8814 51.0153 83.8814 50.0144C83.8814 49.0135 83.0706 48.2019 82.0689 48.2019Z" fill="white"></path><path d="M91.5824 48.2019H91.5115C90.5098 48.2019 89.7344 49.0135 89.7344 50.0144C89.7344 51.0153 90.5804 51.8269 91.5822 51.8269C92.584 51.8269 93.3947 51.0153 93.3947 50.0144C93.3947 49.0135 92.5843 48.2019 91.5824 48.2019Z" fill="white"></path><path d="M101.102 48.2019H101.033C100.031 48.2019 99.2539 49.0135 99.2539 50.0144C99.2539 51.0153 100.1 51.8269 101.102 51.8269C102.104 51.8269 102.914 51.0153 102.914 50.0144C102.914 49.0135 102.104 48.2019 101.102 48.2019Z" fill="white"></path><path d="M107.445 36.2681C100.014 27.5319 86.8548 26.4806 78.1183 33.9119C78.0277 33.9844 77.9371 34.0569 77.8646 34.1475C75.7802 25.665 72.2458 16.9831 66.2827 10.73C60.646 4.80313 53.4866 1.8125 45.0223 1.8125C31.4829 1.8125 21.1516 9.67875 15.1885 24.5775C8.86289 40.3463 9.00789 60.9 11.7991 63.5644C13.5 65.103 16.3965 66.5646 19.3116 67.7246C3.59087 74.8999 3.58398 87.6674 3.58398 96.6014V112.375C3.58398 113.376 4.39472 114.188 5.39648 114.188H44.9208L44.9264 114.188L84.6156 114.188C85.6174 114.188 86.4281 113.376 86.4281 112.375V96.6015C86.4281 87.8966 86.4183 75.5539 71.8728 68.2888C74.1105 67.307 76.2513 66.203 77.8104 65.3406C81.1635 68.3312 85.3866 70.1256 89.9541 70.5063C90.516 70.5425 91.0779 70.5606 91.6398 70.5606C96.5698 70.5606 101.3 68.8387 105.107 65.5944C109.33 62.0056 111.904 56.9669 112.357 51.4206C112.792 45.8744 111.052 40.5094 107.445 36.2681ZM19.3196 110.562V101.709C19.3196 100.708 18.5088 99.8963 17.5071 99.8963C16.5053 99.8963 15.6946 100.708 15.6946 101.709V110.562H7.20898V96.6015C7.20898 86.6393 7.21515 74.3877 26.9022 68.8161L21.7922 78.0676C21.3992 78.7774 21.5266 79.6625 22.1037 80.2323L27.8775 85.9406L23.7852 96.3935C23.4932 97.1413 23.7268 97.9917 24.3623 98.4847L39.9049 110.562H19.3196ZM27.6545 96.4536L31.6884 86.1503C31.9521 85.4768 31.7894 84.7105 31.2743 84.2015L25.628 78.6188L30.0302 70.6482L41.5336 107.238L27.6545 96.4536ZM34.0021 62.1494C37.2997 64.581 41.0262 66.0845 44.8874 66.0845C48.3707 66.0845 51.977 64.4946 55.2886 61.9739L57.5579 66.2461L54.7728 75.0868H35.2257L32.4125 66.1385L34.0021 62.1494ZM25.2615 38.8263V31.7728C30.5504 30.4886 31.8972 28.7946 34.0142 25.6449C34.5505 24.8439 35.1418 23.9651 35.9152 22.958C46.399 28.954 54.2879 31.4434 64.7825 32.0479V38.8642C64.7825 47.9675 53.9198 62.4595 44.8874 62.4595C41.1992 62.4595 37.5957 60.6751 34.4985 57.9224C34.4954 57.9193 34.4916 57.9172 34.4886 57.9141C29.102 53.1217 25.2615 45.3765 25.2615 38.8263ZM36.3654 78.7118H53.6309L44.9893 106.142L36.3654 78.7118ZM59.9567 70.6987L64.3098 78.7569L58.6546 84.3467C58.1395 84.8565 57.9767 85.6229 58.2423 86.2973L62.2796 96.6006L48.4 107.382L59.9567 70.6987ZM82.8031 96.6015V110.562H73.553V101.709C73.553 100.708 72.7423 99.8963 71.7405 99.8963C70.7387 99.8963 69.928 100.708 69.928 101.709V110.562H50.2138L65.5737 98.6317C66.2091 98.1387 66.4428 97.2874 66.1489 96.5395L62.0514 86.0858L67.8251 80.3802C68.3968 79.8138 68.5278 78.9376 68.1456 78.2297L63.0523 68.8023C64.2639 69.1438 65.396 69.5123 66.4636 69.9023C66.473 69.9056 66.4819 69.9092 66.4915 69.9121C82.7911 75.8785 82.8031 87.248 82.8031 96.6015ZM67.0574 66.2712C65.1448 65.6016 63.0365 65.0051 60.7272 64.4871L58.0908 59.5236C63.9986 53.7974 68.4075 45.414 68.4075 38.8642V30.3186C68.4075 29.3442 67.6357 28.5432 66.6622 28.507C55.4916 28.091 47.5708 25.6148 36.3949 19.0454C35.6321 18.5966 34.6533 18.7648 34.0869 19.4454C32.6868 21.1173 31.754 22.5067 31.0035 23.6236C29.0795 26.4884 28.4317 27.4539 23.0879 28.5425C22.2437 28.7151 21.6365 29.4577 21.6365 30.3188V38.8263C21.6365 45.9101 25.4571 54.0939 31.1023 59.6365L29.1584 64.5148C27.5369 64.8817 26.0171 65.2881 24.5948 65.7318C20.2853 64.4239 16.0669 62.4754 14.3729 61.0087C12.9591 58.145 12.3429 35.6337 21.496 19.8287C27.0241 10.2769 34.9448 5.4375 45.0223 5.4375C52.4535 5.4375 58.7248 8.0475 63.6548 13.2131C69.636 19.4844 72.9891 28.6737 74.856 37.4281C71.7748 41.5787 70.361 46.7444 70.9229 51.9825L66.2285 58.3444C65.8116 58.8881 65.7574 59.6131 66.0473 60.2113C66.3373 60.8275 66.9535 61.2081 67.6241 61.2262L74.3666 61.4075C74.6385 61.8244 74.9465 62.2231 75.2548 62.6038C72.9232 63.846 69.7756 65.3539 67.0574 66.2712ZM108.732 51.1306C108.55 53.4325 107.934 55.6075 106.919 57.5831C105.904 59.5769 104.509 61.3531 102.75 62.8394C99.2523 65.8119 94.8298 67.2619 90.2441 66.8813C86.6735 66.5913 83.3748 65.25 80.6923 63.0206C79.2231 61.8247 77.8648 60.3213 76.9223 58.6706C76.596 58.145 76.0341 57.8369 75.4179 57.8187L71.2129 57.6919L74.2579 53.5594C74.5479 53.1787 74.6748 52.6894 74.6023 52.2181C74.1312 48.9919 74.5843 45.7838 75.8529 42.9019C76.5598 41.2525 77.5566 39.7119 78.7891 38.3344C79.2966 37.7544 79.8766 37.1925 80.4749 36.685C87.6887 30.5406 98.5456 31.4106 104.69 38.6244C107.662 42.1225 109.094 46.5631 108.732 51.1306Z" fill="white"></path></svg> 