<?xml version="1.0" encoding="UTF-8"?> <svg xmlns="http://www.w3.org/2000/svg" width="103" height="103" viewBox="0 0 103 103" fill="none"><path d="M8.58333 81.5417C8.58333 64.8042 21.8875 51.5 38.625 51.5C49.3542 51.5 59.225 57.0792 64.8042 66.5208L72.1 62.2292C67.8083 54.9333 61.3708 49.3542 54.075 46.35C60.5125 41.6292 64.375 33.9042 64.375 25.75C64.375 11.5875 52.7875 0 38.625 0C24.4625 0 12.875 11.5875 12.875 25.75C12.875 33.9042 16.7375 41.6292 23.175 46.35C9.44167 52.3583 0 65.6625 0 81.5417V103H51.5V94.4167H8.58333V81.5417ZM21.4583 25.75C21.4583 16.3083 29.1833 8.58333 38.625 8.58333C48.0667 8.58333 55.7917 16.3083 55.7917 25.75C55.7917 35.1917 48.0667 42.9167 38.625 42.9167C29.1833 42.9167 21.4583 35.1917 21.4583 25.75Z" fill="white"></path><path d="M103.429 67.8084L70.8124 100.425L50.6416 80.2542L56.6499 74.2459L70.8124 88.4084L97.4208 61.8L103.429 67.8084Z" fill="white"></path></svg> 