<?xml version="1.0" encoding="UTF-8"?> <svg xmlns="http://www.w3.org/2000/svg" width="128" height="128" viewBox="0 0 128 128" fill="none"><g clip-path="url(#clip0_239_280)"><path d="M18.209 80.9678L13.0933 75.8518C8.08102 70.8396 4.91476 64.1963 4.17851 57.1461C4.05851 55.9953 3.02726 55.1601 1.87726 55.2803C0.726515 55.4008 -0.108735 56.4308 0.0115149 57.5816C0.847515 65.5841 4.44151 73.1248 10.131 78.8143L15.2468 83.9301C15.6558 84.3391 16.192 84.5438 16.728 84.5438C17.264 84.5438 17.8003 84.3393 18.2093 83.9301C19.0273 83.1121 19.0273 81.7858 18.209 80.9678Z" fill="white"></path><path d="M85.9253 48.992C85.1065 48.174 83.7805 48.1743 82.9625 48.9925L74.0555 57.903C73.2378 58.7213 73.238 60.0475 74.056 60.8655C74.4653 61.2745 75.0013 61.4788 75.5373 61.4788C76.0733 61.4788 76.6095 61.274 77.0188 60.8648L85.9258 51.9543C86.7438 51.136 86.7435 49.8098 85.9253 48.992Z" fill="white"></path><path d="M92.1965 57.7037C91.3778 56.8852 90.0513 56.8857 89.2341 57.704L74.7038 72.2375C73.8858 73.0555 73.8858 74.382 74.704 75.2C75.1133 75.609 75.6491 75.8132 76.1851 75.8132C76.7213 75.8132 77.2575 75.6087 77.6665 75.1995L92.1968 60.666C93.0151 59.848 93.015 58.5215 92.1965 57.7037Z" fill="white"></path><path d="M126.123 41.4227C124.972 41.3012 123.941 42.1377 123.822 43.2884C123.085 50.3389 119.919 56.9822 114.906 61.9944L89.3914 87.5089C88.7866 88.1137 87.9829 88.4467 87.1276 88.4467C86.2724 88.4467 85.4689 88.1137 84.8639 87.5087C84.2591 86.9039 83.9261 86.1002 83.9261 85.2449C83.9261 84.3897 84.2591 83.5857 84.8639 82.9812C84.8679 82.9772 84.8709 82.9732 84.8744 82.9694L101.255 66.5887C102.073 65.7707 102.073 64.4442 101.255 63.6262C100.437 62.8082 99.1106 62.8082 98.2924 63.6262L79.0264 82.8922C78.6716 81.8764 78.0894 80.9232 77.2789 80.1127L67.5249 70.3589L72.5494 65.3344C73.3674 64.5164 73.3674 63.1899 72.5494 62.3719C71.7314 61.5542 70.4051 61.5534 69.5866 62.3719L64.5624 67.3962L48.5211 51.3552C48.4804 51.3144 48.3961 51.2302 48.4636 51.0664C48.5311 50.9029 48.6509 50.9027 48.7081 50.9027L57.7054 50.8884C62.0101 50.8817 65.5069 47.3739 65.4999 43.0689C65.4931 38.7692 61.9916 35.2744 57.6931 35.2744C57.6906 35.2744 57.6879 35.2744 57.6856 35.2744L22.6346 35.3074C21.4774 35.3084 20.5406 36.2474 20.5416 37.4042C20.5426 38.5604 21.4804 39.4972 22.6364 39.4972C22.6369 39.4972 22.6379 39.4972 22.6384 39.4972L57.6894 39.4642C57.6906 39.4642 57.6916 39.4642 57.6926 39.4642C59.6841 39.4642 61.3066 41.0837 61.3101 43.0757C61.3131 45.0702 59.6929 46.6957 57.6986 46.6987L48.7016 46.7129C46.8951 46.7157 45.2816 47.7964 44.5916 49.4662C43.9014 51.1359 44.2811 53.0402 45.5586 54.3179L74.3161 83.0754C75.5611 84.3204 75.5639 86.3429 74.3264 87.5922L74.3154 87.6032C74.3134 87.6052 74.3121 87.6072 74.3101 87.6089C73.7059 88.2102 72.9046 88.5417 72.0519 88.5417C71.1966 88.5417 70.3929 88.2087 69.7881 87.6039L45.0356 62.8514C44.2176 62.0329 42.8911 62.0334 42.0731 62.8514C41.2551 63.6694 41.2551 64.9959 42.0731 65.8139L71.5419 95.2829C72.7904 96.5312 72.7904 98.5627 71.5419 99.8109C70.9371 100.416 70.1334 100.749 69.2781 100.749C68.4229 100.749 67.6189 100.416 67.0144 99.8109L38.7644 71.5607C37.9464 70.7427 36.6199 70.7427 35.8019 71.5607C34.9839 72.3787 34.9839 73.7052 35.8019 74.5232L58.2124 96.9337C59.4599 98.1822 59.4596 100.213 58.2114 101.461C56.9629 102.709 54.9316 102.709 53.6834 101.461L29.7061 77.4834C28.8884 76.6654 27.5619 76.6654 26.7436 77.4834C25.9256 78.3014 25.9256 79.6279 26.7436 80.4459L43.1364 96.8389C44.3844 98.0874 44.3841 100.118 43.1361 101.366C42.5314 101.971 41.7274 102.304 40.8721 102.304C40.0169 102.304 39.2126 101.971 38.6079 101.366L23.4671 86.2249C22.6491 85.4069 21.3226 85.4069 20.5046 86.2249C19.6866 87.0429 19.6866 88.3694 20.5046 89.1874L35.6456 104.328C37.0416 105.725 38.8979 106.493 40.8721 106.493C42.8464 106.493 44.7026 105.725 46.0986 104.328C46.9091 103.518 47.4919 102.565 47.8464 101.548L50.7209 104.423C52.1619 105.864 54.0549 106.584 55.9474 106.584C57.8401 106.584 59.7329 105.863 61.1739 104.423C61.9844 103.612 62.5671 102.659 62.9216 101.643L64.0516 102.773C65.4476 104.169 67.3039 104.937 69.2781 104.937C71.2526 104.937 73.1089 104.169 74.5049 102.772C77.3866 99.8904 77.3866 95.2012 74.5049 92.3194L74.5011 92.3157C75.5346 91.9539 76.4816 91.3624 77.2789 90.5652C77.2861 90.5579 77.2926 90.5504 77.2999 90.5432L80.1504 87.6927C80.5121 88.7262 81.1039 89.6739 81.9011 90.4709C83.2971 91.8672 85.1534 92.6359 87.1276 92.6359C89.1021 92.6359 90.9584 91.8672 92.3544 90.4709L117.869 64.9564C123.558 59.2672 127.152 51.7264 127.988 43.7237C128.109 42.5732 127.273 41.5429 126.123 41.4227Z" fill="white"></path><path d="M112.462 45.7542C112.045 44.6752 110.833 44.1377 109.753 44.5545C106.516 45.8037 103.027 46.0552 99.6607 45.283C98.533 45.024 97.409 45.7282 97.1502 46.8557C96.8915 47.9832 97.5955 49.1075 98.723 49.3662C100.31 49.7307 101.918 49.912 103.523 49.912C106.15 49.912 108.767 49.4262 111.262 48.463C112.342 48.0462 112.879 46.8337 112.462 45.7542Z" fill="white"></path><path d="M105.365 21.449L70.2437 21.4158C70.2412 21.4158 70.239 21.4158 70.2367 21.4158C65.9767 21.4158 62.5065 24.8798 62.4997 29.1398L62.4995 29.2805C62.4962 31.347 63.2977 33.2913 64.757 34.7548C66.2157 36.2193 68.1575 37.027 70.2242 37.03L79.9292 37.0453L60.6985 56.276C59.8805 57.094 59.8805 58.4205 60.6985 59.2385C61.1075 59.6475 61.6437 59.8523 62.1797 59.8523C62.7157 59.8523 63.252 59.6478 63.661 59.2385L84.3592 38.5403C86.181 41.7873 88.795 44.4808 92.047 46.4228C92.3835 46.6238 92.7537 46.7195 93.1192 46.7195C93.8322 46.7195 94.5275 46.3553 94.9197 45.6985C95.5127 44.7053 95.1885 43.419 94.1952 42.8258C90.851 40.8288 88.34 37.847 86.9337 34.2035C86.9322 34.1995 86.9295 34.1965 86.9282 34.1925C86.623 33.4158 85.8682 32.8643 84.9827 32.863L70.2307 32.8398C69.283 32.8383 68.3932 32.4678 67.724 31.7968C67.055 31.1255 66.6877 30.2343 66.6892 29.2878L66.6895 29.147C66.6925 27.1935 68.2835 25.6053 70.2367 25.6053C70.2377 25.6053 70.239 25.6053 70.24 25.6053L105.361 25.6385C105.361 25.6385 105.362 25.6385 105.363 25.6385C106.519 25.6385 107.457 24.7018 107.458 23.5455C107.459 22.3888 106.522 21.4503 105.365 21.449Z" fill="white"></path></g><defs><clipPath id="clip0_239_280"><rect width="128" height="128" fill="white"></rect></clipPath></defs></svg> 