<?xml version="1.0" encoding="UTF-8"?> <svg xmlns="http://www.w3.org/2000/svg" width="116" height="116" viewBox="0 0 116 116" fill="none"><path d="M90.625 7.25H25.375C19.3684 7.25 14.5 12.1184 14.5 18.125V97.875C14.5 103.882 19.3684 108.75 25.375 108.75H90.625C96.6316 108.75 101.5 103.882 101.5 97.875V18.125C101.5 12.1184 96.6316 7.25 90.625 7.25ZM97.875 97.875C97.875 101.873 94.6234 105.125 90.625 105.125H25.375C21.3766 105.125 18.125 101.873 18.125 97.875V18.125C18.125 14.1266 21.3766 10.875 25.375 10.875H90.625C94.6234 10.875 97.875 14.1266 97.875 18.125V97.875ZM36.25 18.125C30.2434 18.125 25.375 22.9934 25.375 29C25.375 35.0066 30.2434 39.875 36.25 39.875C42.2566 39.875 47.125 35.0066 47.125 29C47.125 22.9934 42.2566 18.125 36.25 18.125ZM36.25 36.25C32.2516 36.25 29 32.9984 29 29C29 25.0016 32.2516 21.75 36.25 21.75C40.2484 21.75 43.5 25.0016 43.5 29C43.5 32.9984 40.2484 36.25 36.25 36.25ZM36.25 47.125C30.2434 47.125 25.375 51.9934 25.375 58C25.375 64.0066 30.2434 68.875 36.25 68.875C42.2566 68.875 47.125 64.0066 47.125 58C47.125 51.9934 42.2566 47.125 36.25 47.125ZM36.25 65.25C32.2516 65.25 29 61.9984 29 58C29 54.0016 32.2516 50.75 36.25 50.75C40.2484 50.75 43.5 54.0016 43.5 58C43.5 61.9984 40.2484 65.25 36.25 65.25ZM36.25 76.125C30.2434 76.125 25.375 80.9934 25.375 87C25.375 93.0066 30.2434 97.875 36.25 97.875C42.2566 97.875 47.125 93.0066 47.125 87C47.125 80.9934 42.2566 76.125 36.25 76.125ZM36.25 94.25C32.2516 94.25 29 90.9984 29 87C29 83.0016 32.2516 79.75 36.25 79.75C40.2484 79.75 43.5 83.0016 43.5 87C43.5 90.9984 40.2484 94.25 36.25 94.25ZM39.875 58C39.875 60.001 38.251 61.625 36.25 61.625C34.249 61.625 32.625 60.001 32.625 58C32.625 55.999 34.249 54.375 36.25 54.375C38.251 54.375 39.875 55.999 39.875 58ZM83.375 23.5625C83.375 24.563 82.563 25.375 81.5625 25.375H56.1875C55.187 25.375 54.375 24.563 54.375 23.5625C54.375 22.562 55.187 21.75 56.1875 21.75H81.5625C82.563 21.75 83.375 22.562 83.375 23.5625ZM83.375 30.8125C83.375 31.813 82.563 32.625 81.5625 32.625H56.1875C55.187 32.625 54.375 31.813 54.375 30.8125C54.375 29.812 55.187 29 56.1875 29H81.5625C82.563 29 83.375 29.812 83.375 30.8125ZM83.375 52.5625C83.375 53.563 82.563 54.375 81.5625 54.375H56.1875C55.187 54.375 54.375 53.563 54.375 52.5625C54.375 51.562 55.187 50.75 56.1875 50.75H81.5625C82.563 50.75 83.375 51.562 83.375 52.5625ZM83.375 59.8125C83.375 60.813 82.563 61.625 81.5625 61.625H56.1875C55.187 61.625 54.375 60.813 54.375 59.8125C54.375 58.812 55.187 58 56.1875 58H81.5625C82.563 58 83.375 58.812 83.375 59.8125ZM83.375 81.5625C83.375 82.563 82.563 83.375 81.5625 83.375H56.1875C55.187 83.375 54.375 82.563 54.375 81.5625C54.375 80.562 55.187 79.75 56.1875 79.75H81.5625C82.563 79.75 83.375 80.562 83.375 81.5625ZM83.375 88.8125C83.375 89.813 82.563 90.625 81.5625 90.625H56.1875C55.187 90.625 54.375 89.813 54.375 88.8125C54.375 87.812 55.187 87 56.1875 87H81.5625C82.563 87 83.375 87.812 83.375 88.8125Z" fill="white"></path></svg> 