<svg width="60" height="60" viewBox="0 0 60 60" fill="none" xmlns="http://www.w3.org/2000/svg">
<circle cx="30" cy="30" r="29.5" fill="white" stroke="#1669B1"/>
<path fill-rule="evenodd" clip-rule="evenodd" d="M42.6676 32.65L32.0626 43.2626C31.3295 43.9938 30.1426 43.9938 29.4114 43.2626C28.6782 42.5313 28.6782 41.3312 29.4114 40.6L37.1383 32.875H17.2895C16.2526 32.875 15.4145 32.0312 15.4145 31C15.4145 29.9688 16.2526 29.125 17.2895 29.125H37.1383L29.4114 21.4C28.6782 20.6688 28.6782 19.4874 29.4114 18.7374C30.1426 18.0062 31.3295 18.0062 32.0626 18.7374L42.6676 29.35C43.1176 29.8 43.2583 30.4187 43.1552 31C43.2583 31.5813 43.1176 32.2 42.6676 32.65ZM30.4145 1C129.998 1 -63.2193 1 30.4145 1Z" fill="#1669B1"/>
</svg>
