<svg width="29" height="25" viewBox="0 0 29 25" fill="none" xmlns="http://www.w3.org/2000/svg">
<path d="M14.385 4.05283L13.6922 4.7197C13.8734 4.90806 14.1236 5.01448 14.385 5.01448C14.6464 5.01448 14.8965 4.90806 15.0778 4.7197L14.385 4.05283ZM11.085 20.4922C9.14178 18.9602 7.01695 17.4641 5.3313 15.5659C3.6786 13.7046 2.52573 11.533 2.52573 8.71549H0.6026C0.6026 12.1332 2.02635 14.7405 3.89335 16.8429C5.72738 18.9083 8.06531 20.5605 9.8944 22.0026L11.085 20.4922ZM2.52573 8.71549C2.52573 5.95766 4.08393 3.64496 6.2109 2.67263C8.27724 1.72803 11.0537 1.97818 13.6922 4.7197L15.0778 3.38597C11.9471 0.133033 8.31317 -0.40309 5.41139 0.923427C2.57023 2.22224 0.6026 5.23809 0.6026 8.71549H2.52573ZM9.8944 22.0026C10.5511 22.5203 11.2561 23.0724 11.9706 23.4899C12.6848 23.9073 13.4998 24.2465 14.385 24.2465V22.3233C13.9881 22.3233 13.521 22.1685 12.9409 21.8294C12.361 21.4905 11.7594 21.0239 11.085 20.4922L9.8944 22.0026ZM18.8756 22.0026C20.7046 20.5605 23.0427 18.9083 24.8767 16.8429C26.7436 14.7405 28.1674 12.1332 28.1674 8.71549H26.2443C26.2443 11.533 25.0914 13.7046 23.4387 15.5659C21.753 17.4641 19.6282 18.9602 17.6851 20.4922L18.8756 22.0026ZM28.1674 8.71549C28.1674 5.23809 26.1998 2.22224 23.3586 0.923427C20.4568 -0.40309 16.8229 0.133033 13.6922 3.38597L15.0778 4.7197C17.7162 1.97818 20.4927 1.72803 22.559 2.67263C24.686 3.64496 26.2443 5.95766 26.2443 8.71549H28.1674ZM17.6851 20.4922C17.0106 21.0239 16.409 21.4905 15.8291 21.8294C15.249 22.1685 14.7819 22.3233 14.385 22.3233V24.2465C15.2701 24.2465 16.0852 23.9073 16.7994 23.4899C17.5139 23.0724 18.2188 22.5203 18.8756 22.0026L17.6851 20.4922Z" fill="white"/>
</svg>
