<?xml version="1.0" encoding="utf-8"?>
<!-- Generator: Adobe Illustrator 16.0.0, SVG Export Plug-In . SVG Version: 6.00 Build 0)  -->
<!DOCTYPE svg PUBLIC "-//W3C//DTD SVG 1.1//EN" "http://www.w3.org/Graphics/SVG/1.1/DTD/svg11.dtd">
<svg version="1.1" xmlns="http://www.w3.org/2000/svg" xmlns:xlink="http://www.w3.org/1999/xlink" x="0px" y="0px" width="290px"
	 height="38.886px" viewBox="1461 9 290 38.886" enable-background="new 1461 9 290 38.886" xml:space="preserve">
<g id="Layer_1">
	<path fill="#1669B1" d="M439,9l1002.25,0.25v500H720.313L439,9z"/>
	<path fill="#1B2C4F" d="M341,9h98l281.313,500.25l-48.777,0.029l-50.223-0.029L341,9z"/>
	<path fill="#006699" d="M305.54,100.289l86.585-0.051l232.237,409.019l-44.089,0.026l-44.091,0.025L305.54,100.289z"/>
	<path fill="#005791" d="M1441,47.886V9H476l21.977,38.886H1441z"/>
	<path fill="#005791" d="M583,264.949L439,9h37l132.5,232.892L583,264.949z"/>
	<path display="none" fill="#1669B1" d="M0,470.218h236l54,38.999H0V470.218z"/>
</g>
<g id="Layer_2">
	<path fill="#1669B1" d="M1461,8.943h236l54,38.999h-290V8.943z"/>
</g>
</svg>
