<svg width="19" height="14" viewBox="0 0 19 14" fill="none" xmlns="http://www.w3.org/2000/svg">
<path fill-rule="evenodd" clip-rule="evenodd" d="M2.15023 1.8943C1.27805 2.67029 0.78717 3.72188 0.78717 4.81843C0.78717 5.91553 1.27805 6.96711 2.15023 7.7426L8.10823 13.0402C8.4598 13.3527 8.93707 13.5272 9.43473 13.5272C9.93182 13.5272 10.4097 13.3527 10.7613 13.0402C11.8402 12.0806 16.7143 7.73829 16.7143 7.73829C17.5865 6.96286 18.0774 5.91127 18.0774 4.81417C18.0774 3.71708 17.5865 2.666 16.7143 1.89002C15.8359 1.10921 14.6437 0.671448 13.4013 0.671448C12.159 0.671448 10.9674 1.10921 10.089 1.89002L9.42979 2.47602L8.77548 1.8943C7.89713 1.1135 6.70553 0.675729 5.46318 0.675729C4.22082 0.675729 3.02861 1.1135 2.15023 1.8943ZM3.03789 2.64085C3.68104 2.06876 4.55323 1.74606 5.46318 1.74606C6.3731 1.74606 7.24469 2.06876 7.88782 2.64085L8.98595 3.61697C9.10235 3.72026 9.26263 3.77917 9.42979 3.77917C9.59694 3.77917 9.75722 3.72026 9.87362 3.61697L10.9767 2.63603C11.6199 2.06448 12.4914 1.74178 13.4013 1.74178C14.3113 1.74178 15.1829 2.06448 15.8267 2.63603C15.8285 2.63818 15.8303 2.63978 15.8328 2.64192C16.476 3.21401 16.8393 3.99749 16.8393 4.81417C16.8393 5.63081 16.476 6.41485 15.8267 6.99226C15.8267 6.99226 10.9526 11.3346 9.87362 12.2942C9.75722 12.3974 9.59938 12.4568 9.43473 12.4568C9.27007 12.4568 9.11223 12.3974 8.99589 12.2942L3.03789 6.99657C2.38855 6.41911 2.02519 5.63511 2.02519 4.81843C2.02519 4.0018 2.38855 3.21829 3.03789 2.64085Z" fill="#002369"/>
<path fill-rule="evenodd" clip-rule="evenodd" d="M8.81329 6.97579H7.57712C7.23543 6.97579 6.95813 7.21555 6.95813 7.51093C6.95813 7.80637 7.23543 8.04612 7.57712 8.04612H8.81329V9.11484C8.81329 9.41022 9.09065 9.64998 9.43233 9.64998C9.77402 9.64998 10.0513 9.41022 10.0513 9.11484V8.04612H11.2875C11.6292 8.04612 11.9065 7.80637 11.9065 7.51093C11.9065 7.21555 11.6292 6.97579 11.2875 6.97579H10.0513V5.90703C10.0513 5.61164 9.77402 5.37189 9.43233 5.37189C9.09065 5.37189 8.81329 5.61164 8.81329 5.90703V6.97579Z" fill="#002369"/>
</svg>
