<svg width="61" height="60" viewBox="0 0 61 60" fill="none" xmlns="http://www.w3.org/2000/svg">
<path d="M40.5757 25.0757C41.308 24.3436 41.308 23.1564 40.5757 22.4242C39.8435 21.6919 38.6565 21.6919 37.9242 22.4242L26.75 33.5982L23.0758 29.9242C22.3436 29.192 21.1564 29.192 20.4242 29.9242C19.6919 30.6565 19.6919 31.8435 20.4242 32.5757L25.4242 37.5757C26.1565 38.308 27.3435 38.308 28.0757 37.5757L40.5757 25.0757Z" fill="#1669B1"/>
<path fill-rule="evenodd" clip-rule="evenodd" d="M30.5 3.125C15.6574 3.125 3.625 15.1574 3.625 30C3.625 44.8428 15.6574 56.875 30.5 56.875C45.3428 56.875 57.375 44.8428 57.375 30C57.375 15.1574 45.3428 3.125 30.5 3.125ZM7.375 30C7.375 17.2284 17.7284 6.875 30.5 6.875C43.2715 6.875 53.625 17.2284 53.625 30C53.625 42.7715 43.2715 53.125 30.5 53.125C17.7284 53.125 7.375 42.7715 7.375 30Z" fill="#1669B1"/>
</svg>
