<svg width="133" height="133" viewBox="0 0 133 133" fill="none" xmlns="http://www.w3.org/2000/svg">
<path d="M16.5625 57.5088C16.5625 39.8552 16.5625 31.0286 18.6467 28.0591C20.7309 25.0896 29.0303 22.2487 45.6292 16.5668L48.7916 15.4844C57.4443 12.5225 61.7704 11.0416 66.25 11.0416C70.7296 11.0416 75.0557 12.5225 83.7085 15.4844L86.8709 16.5668C103.47 22.2487 111.769 25.0896 113.853 28.0591C115.937 31.0286 115.938 39.8552 115.938 57.5088C115.938 60.1748 115.938 63.0666 115.938 66.2025C115.938 97.3289 92.5347 112.434 77.8515 118.849C73.8688 120.588 71.8774 121.458 66.25 121.458C60.6226 121.458 58.6312 120.588 54.6483 118.849C39.9651 112.434 16.5625 97.3289 16.5625 66.2025C16.5625 63.0666 16.5625 60.1748 16.5625 57.5088Z" stroke="#00143d" stroke-width="3.75"/>
<path d="M52.4478 68.4584L60.3348 77.2917L80.0519 55.2084" stroke="#00143d" stroke-width="3.75" stroke-linecap="round" stroke-linejoin="round"/>
</svg>
