<svg width="48" height="48" viewBox="0 0 48 48" fill="none" xmlns="http://www.w3.org/2000/svg">
<path d="M24 0C10.7438 0 0 10.7438 0 24C0 37.2562 10.7438 48 24 48C37.2562 48 48 37.2562 48 24C48 10.7438 37.2562 0 24 0ZM38.9812 38.9719C37.0312 40.9219 34.7719 42.45 32.25 43.5094C29.6438 44.6156 26.8688 45.1687 24 45.1687C21.1406 45.1687 18.3656 44.6062 15.75 43.5094C13.2281 42.4406 10.9594 40.9125 9.01875 38.9719C7.06875 37.0219 5.54063 34.7625 4.48125 32.2406C3.375 29.6344 2.8125 26.8594 2.8125 24C2.8125 21.1406 3.375 18.3656 4.47187 15.75C5.54062 13.2281 7.06875 10.9594 9.00937 9.01875C10.9687 7.06875 13.2281 5.54062 15.75 4.47187C18.3656 3.375 21.1406 2.8125 24 2.8125C26.8594 2.8125 29.6344 3.375 32.25 4.47187C34.7719 5.54062 37.0406 7.06875 38.9812 9.00938C40.9312 10.9594 42.4594 13.2187 43.5188 15.7406C44.625 18.3469 45.1781 21.1219 45.1781 23.9906C45.1781 26.85 44.6156 29.625 43.5188 32.2406C42.45 34.7625 40.9219 37.0313 38.9812 38.9719Z" fill="white"/>
<path d="M30.7185 25.5146C30.664 25.4893 28.6227 24.52 28.26 24.3941C28.1119 24.3429 27.9533 24.2928 27.7845 24.2928C27.5089 24.2928 27.2774 24.4253 27.097 24.6854C26.8931 24.9777 26.2758 25.6735 26.0851 25.8813C26.0602 25.9088 26.0262 25.9416 26.0058 25.9416C25.9875 25.9416 25.6716 25.8161 25.576 25.7761C23.3863 24.8588 21.7242 22.6532 21.4963 22.2812C21.4637 22.2277 21.4624 22.2035 21.4621 22.2035C21.4701 22.1751 21.5437 22.104 21.5817 22.0672C21.6929 21.9612 21.8134 21.8213 21.9299 21.6861C21.9851 21.622 22.0404 21.5578 22.0946 21.4973C22.2637 21.3076 22.339 21.1604 22.4263 20.9898L22.472 20.9011C22.6851 20.4929 22.5031 20.1484 22.4443 20.0371C22.396 19.9441 21.5341 17.9382 21.4425 17.7274C21.2221 17.2189 20.9309 16.9821 20.5263 16.9821C20.4887 16.9821 20.5263 16.9821 20.3688 16.9885C20.1771 16.9963 19.133 17.1289 18.6714 17.4095C18.1818 17.7071 17.3536 18.6558 17.3536 20.3242C17.3536 21.8257 18.3418 23.2435 18.7661 23.7827C18.7766 23.7963 18.796 23.8239 18.8241 23.8635C20.4489 26.1517 22.4745 27.8474 24.5278 28.6384C26.5046 29.3998 27.4407 29.4878 27.9729 29.4878H27.973C28.1966 29.4878 28.3756 29.4709 28.5335 29.4559L28.6337 29.4467C29.3166 29.3884 30.8174 28.6385 31.1587 27.7237C31.4276 27.0032 31.4985 26.216 31.3196 25.9303C31.1971 25.7361 30.9859 25.6383 30.7185 25.5146Z" fill="white"/>
<path d="M24.2485 10C16.6653 10 10.4958 15.9044 10.4958 23.1619C10.4958 25.5092 11.1473 27.8069 12.3813 29.8179L10.0193 36.5368C9.97525 36.6621 10.008 36.8006 10.1041 36.8949C10.1734 36.9632 10.2675 37 10.3636 37C10.4004 37 10.4375 36.9947 10.4737 36.9835L17.7392 34.7572C19.7273 35.7816 21.9744 36.3223 24.2486 36.3223C31.8312 36.3224 38 30.4186 38 23.1619C38 15.9044 31.8312 10 24.2485 10ZM24.2485 33.5806C22.1086 33.5806 20.036 32.9848 18.2543 31.8575C18.1944 31.8195 18.1249 31.8 18.0549 31.8C18.0179 31.8 17.9808 31.8055 17.9447 31.8165L14.3052 32.9321L15.4801 29.5896C15.5181 29.4815 15.4991 29.3622 15.4291 29.2699C14.0723 27.4823 13.3552 25.3703 13.3552 23.1619C13.3552 17.4162 18.2419 12.7417 24.2484 12.7417C30.2543 12.7417 35.1404 17.4162 35.1404 23.1619C35.1405 28.9068 30.2544 33.5806 24.2485 33.5806Z" fill="white"/>
</svg>
